<?xml version="1.0" encoding="UTF-8" standalone="no"?>
<!-- This is a Stata 15.1 generated SVG file (http://www.stata.com) -->

<svg version="1.1" width="5.50in" height="4.00in" viewBox="0 0 3960 2880" xmlns="http://www.w3.org/2000/svg" xmlns:xlink="http://www.w3.org/1999/xlink">
	<desc>Stata Graph - Graph</desc>
	<rect x="0" y="0" width="3960" height="2880" style="fill:#EAF2F3;stroke:none"/>
	<rect x="0.00" y="0.00" width="3959.88" height="2880.00" style="fill:#EAF2F3"/>
	<rect x="2.88" y="2.88" width="3954.12" height="2874.24" style="fill:none;stroke:#EAF2F3;stroke-width:5.76"/>
	<rect x="63.36" y="237.98" width="1916.64" height="2578.66" style="fill:#EAF2F3"/>
	<rect x="65.52" y="240.14" width="1912.32" height="2574.34" style="fill:none;stroke:#EAF2F3;stroke-width:4.32"/>
	<rect x="356.40" y="444.40" width="1547.99" height="2079.19" style="fill:#FFFFFF"/>
	<rect x="358.56" y="446.56" width="1543.67" height="2074.87" style="fill:none;stroke:#FFFFFF;stroke-width:4.32"/>
	<line x1="356.40" y1="2523.59" x2="1904.39" y2="2523.59" style="stroke:#EAF2F3;stroke-width:6.48"/>
	<line x1="356.40" y1="2015.70" x2="1904.39" y2="2015.70" style="stroke:#EAF2F3;stroke-width:6.48"/>
	<line x1="356.40" y1="1507.69" x2="1904.39" y2="1507.69" style="stroke:#EAF2F3;stroke-width:6.48"/>
	<line x1="356.40" y1="999.81" x2="1904.39" y2="999.81" style="stroke:#EAF2F3;stroke-width:6.48"/>
	<line x1="356.40" y1="491.92" x2="1904.39" y2="491.92" style="stroke:#EAF2F3;stroke-width:6.48"/>
	<rect x="549.20" y="2519.50" width="38.73" height="4.08" style="fill:#CAC27E"/>
	<rect x="552.44" y="2520.35" width="32.25" height="2.40" style="fill:none;stroke:#D7D29E;stroke-width:6.48"/>
	<rect x="587.94" y="2519.50" width="38.86" height="4.08" style="fill:#CAC27E"/>
	<rect x="591.18" y="2520.35" width="32.38" height="2.40" style="fill:none;stroke:#D7D29E;stroke-width:6.48"/>
	<rect x="665.53" y="2519.50" width="38.73" height="4.08" style="fill:#CAC27E"/>
	<rect x="668.77" y="2520.35" width="32.25" height="2.40" style="fill:none;stroke:#D7D29E;stroke-width:6.48"/>
	<rect x="743.00" y="2515.42" width="38.73" height="8.17" style="fill:#CAC27E"/>
	<rect x="746.23" y="2518.66" width="32.25" height="1.69" style="fill:none;stroke:#D7D29E;stroke-width:6.48"/>
	<rect x="820.46" y="2491.17" width="38.73" height="32.42" style="fill:#CAC27E"/>
	<rect x="823.70" y="2494.41" width="32.25" height="25.94" style="fill:none;stroke:#D7D29E;stroke-width:6.48"/>
	<rect x="897.93" y="2499.21" width="38.73" height="24.38" style="fill:#CAC27E"/>
	<rect x="901.17" y="2502.45" width="32.25" height="17.90" style="fill:none;stroke:#D7D29E;stroke-width:6.48"/>
	<rect x="975.40" y="2470.87" width="38.73" height="52.72" style="fill:#CAC27E"/>
	<rect x="978.64" y="2474.11" width="32.25" height="46.24" style="fill:none;stroke:#D7D29E;stroke-width:6.48"/>
	<rect x="1052.87" y="2410.11" width="38.73" height="113.48" style="fill:#CAC27E"/>
	<rect x="1056.10" y="2413.35" width="32.25" height="107.00" style="fill:none;stroke:#D7D29E;stroke-width:6.48"/>
	<rect x="1130.33" y="2345.26" width="38.86" height="178.33" style="fill:#CAC27E"/>
	<rect x="1133.57" y="2348.50" width="32.38" height="171.85" style="fill:none;stroke:#D7D29E;stroke-width:6.48"/>
	<rect x="1169.19" y="2337.09" width="38.73" height="186.50" style="fill:#CAC27E"/>
	<rect x="1172.43" y="2340.33" width="32.25" height="180.02" style="fill:none;stroke:#D7D29E;stroke-width:6.48"/>
	<rect x="1246.66" y="647.36" width="38.73" height="1876.23" style="fill:#CAC27E"/>
	<rect x="1249.90" y="650.60" width="32.25" height="1869.75" style="fill:none;stroke:#D7D29E;stroke-width:6.48"/>
	<rect x="1324.12" y="2102.08" width="38.73" height="421.51" style="fill:#CAC27E"/>
	<rect x="1327.36" y="2105.32" width="32.25" height="415.03" style="fill:none;stroke:#D7D29E;stroke-width:6.48"/>
	<rect x="1401.59" y="1968.43" width="38.73" height="555.16" style="fill:#CAC27E"/>
	<rect x="1404.83" y="1971.67" width="32.25" height="548.68" style="fill:none;stroke:#D7D29E;stroke-width:6.48"/>
	<rect x="1479.06" y="2365.56" width="38.73" height="158.03" style="fill:#CAC27E"/>
	<rect x="1482.30" y="2368.80" width="32.25" height="151.55" style="fill:none;stroke:#D7D29E;stroke-width:6.48"/>
	<rect x="1556.53" y="1741.46" width="38.73" height="782.12" style="fill:#CAC27E"/>
	<rect x="1559.77" y="1744.70" width="32.25" height="775.64" style="fill:none;stroke:#D7D29E;stroke-width:6.48"/>
	<rect x="1633.99" y="2373.60" width="38.86" height="149.99" style="fill:#CAC27E"/>
	<rect x="1637.23" y="2376.84" width="32.38" height="143.51" style="fill:none;stroke:#D7D29E;stroke-width:6.48"/>
	<rect x="1672.85" y="2312.84" width="38.73" height="210.75" style="fill:#CAC27E"/>
	<rect x="1676.09" y="2316.08" width="32.25" height="204.27" style="fill:none;stroke:#D7D29E;stroke-width:6.48"/>
	<path d=" M549.20 2523.59 L553.04 2523.59 L557.00 2523.59 L560.84 2523.59 L564.79 2523.59 L568.63 2523.59 L572.47 2523.59 L576.43 2523.59 L580.26 2523.59 L584.22 2523.59 L588.06 2523.59 L591.90 2523.59 L595.86 2523.59 L599.69 2523.59 L603.65 2523.59 L607.49 2523.59 L611.33 2523.59 L615.28 2523.59 L619.12 2523.59 L623.08 2523.59 L626.92 2523.59 L630.88 2523.59 L634.71 2523.59 L638.55 2523.59 L642.51 2523.47 L646.35 2523.47 L650.31 2523.47 L654.14 2523.47 L657.98 2523.47 L661.94 2523.47 L665.77 2523.47 L669.74 2523.47 L673.57 2523.47 L677.41 2523.47 L681.37 2523.34 L685.20 2523.34 L689.16 2523.34 L693.00 2523.34 L696.96 2523.34 L700.80 2523.34 L704.63 2523.22 L708.59 2523.22 L712.43 2523.22 L716.39 2523.22 L720.23 2523.09 L724.06 2523.09 L728.02 2523.09 L731.86 2522.97 L735.82 2522.97 L739.65 2522.85 L743.49 2522.85 L747.45 2522.72 L751.29 2522.72 L755.25 2522.60 L759.08 2522.48 L763.04 2522.48 L766.88 2522.35 L770.72 2522.23 L774.67 2522.10 L778.51 2521.98 L782.47 2521.86 L786.31 2521.73 L790.14 2521.61 L794.10 2521.49 L797.94 2521.36 L801.90 2521.11 L805.74 2520.99 L809.57 2520.74 L813.53 2520.62 L817.37 2520.37 L821.33 2520.12 L825.16 2519.88 L829.12 2519.63 L832.96 2519.38 L836.80 2519.01 L840.76 2518.76 L844.59 2518.39 L848.55 2518.02 L852.39 2517.65 L856.23 2517.28 L860.19 2516.78 L864.02 2516.41 L867.98 2515.92 L871.82 2515.42 L875.65 2514.93 L879.62 2514.31 L883.45 2513.69 L887.41 2513.07 L891.25 2512.45 L895.21 2511.71 L899.04 2511.09 L902.88 2510.22 L906.84 2509.48 L910.68 2508.61 L914.64 2507.75 L918.47 2506.76 L922.31 2505.89 L926.27 2504.78 L930.11 2503.79 L934.07 2502.67 L937.90 2501.44 L941.74 2500.20 L945.70 2498.96 L949.53 2497.60 L953.49 2496.24 L957.33 2494.75 L961.29 2493.15 L965.13 2491.66 L968.96 2489.93 L972.92 2488.20 L976.76 2486.46 L980.72 2484.61 L984.55 2482.63 L988.39 2480.65 L992.35 2478.54 L996.19 2476.31 L1000.15 2474.09 L1003.98 2471.74 L1007.82 2469.38 L1011.78 2466.79 L1015.62 2464.31 L1019.58 2461.59 L1023.41 2458.87 L1027.37 2456.02 L1031.21 2453.05 L1035.05 2450.08 L1039.01 2446.86 L1042.84 2443.64 L1046.80 2440.43 L1050.64 2436.96 L1054.47 2433.50 L1058.43 2429.91 L1062.27 2426.19 L1066.23 2422.48 L1070.07 2418.65 L1074.03 2414.69 L1077.86 2410.60 L1081.70 2406.39 L1085.66 2402.19 L1089.49 2397.85 L1093.45 2393.52 L1097.29 2388.94 L1101.13 2384.37 L1105.09 2379.66 L1108.92 2374.96 L1112.88 2370.13 L1116.72 2365.18 L1120.56 2360.23 L1124.52 2355.16 L1128.35 2349.96 L1132.31 2344.76 L1136.15 2339.44 L1140.11 2334.12 L1143.94 2328.80 L1147.78 2323.36 L1151.74 2317.91 L1155.58 2312.34 L1159.54 2306.77 L1163.37 2301.08 L1167.21 2295.51 L1171.17 2289.82 L1175.01 2284.13 L1178.97 2278.43 L1182.80 2272.74 L1186.64 2266.92 L1190.60 2261.23 L1194.43 2255.54 L1198.39 2249.85 L1202.23 2244.15 L1206.19 2238.46 L1210.03 2232.77 L1213.86 2227.20 L1217.82 2221.63 L1221.66 2216.18 L1225.62 2210.74 L1229.46 2205.29 L1233.29 2199.97 L1237.25 2194.77 L1241.09 2189.58 L1245.05 2184.50 L1248.88 2179.55 L1252.72 2174.60 L1256.68 2169.90 L1260.52 2165.20 L1264.48 2160.74 L1268.31 2156.29 L1272.27 2151.96 L1276.11 2147.87 L1279.95 2143.79 L1283.91 2139.95 L1287.74 2136.24 L1291.70 2132.77 L1295.54 2129.43 L1299.38 2126.22 L1303.34 2123.12 L1307.17 2120.28 L1311.13 2117.68 L1314.97 2115.08 L1318.80 2112.85 L1322.76 2110.75 L1326.60 2108.77 L1330.56 2107.16 L1334.40 2105.67 L1338.36 2104.31 L1342.19 2103.20 L1346.03 2102.33 L1349.99 2101.59 L1353.83 2101.22 L1357.79 2100.85 L1361.62 2100.85 L1365.46 2100.97 L1369.42 2101.34 L1373.25 2101.96 L1377.21 2102.70 L1381.05 2103.69 L1384.89 2104.93 L1388.85 2106.41 L1392.68 2108.02 L1396.64 2109.76 L1400.48 2111.74 L1404.44 2113.96 L1408.28 2116.44 L1412.11 2118.91 L1416.07 2121.76 L1419.91 2124.73 L1423.87 2127.82 L1427.70 2131.04 L1431.54 2134.51 L1435.50 2138.22 L1439.34 2141.93 L1443.30 2145.89 L1447.13 2149.98 L1450.97 2154.18 L1454.93 2158.51 L1458.77 2162.97 L1462.72 2167.55 L1466.56 2172.38 L1470.52 2177.20 L1474.36 2182.03 L1478.19 2187.10 L1482.15 2192.18 L1485.99 2197.50 L1489.95 2202.70 L1493.79 2208.14 L1497.62 2213.46 L1501.58 2219.03 L1505.42 2224.48 L1509.38 2230.04 L1513.21 2235.74 L1517.05 2241.31 L1521.01 2247.00 L1524.85 2252.69 L1528.81 2258.51 L1532.64 2264.20 L1536.60 2269.89 L1540.44 2275.59 L1544.28 2281.28 L1548.24 2287.10 L1552.07 2292.66 L1556.03 2298.36 L1559.87 2304.05 L1563.70 2309.62 L1567.66 2315.19 L1571.50 2320.63 L1575.46 2326.08 L1579.30 2331.52 L1583.13 2336.97 L1587.09 2342.17 L1590.93 2347.49 L1594.89 2352.56 L1598.73 2357.76 L1602.69 2362.71 L1606.52 2367.66 L1610.36 2372.61 L1614.32 2377.44 L1618.15 2382.14 L1622.12 2386.72 L1625.95 2391.30 L1629.79 2395.75 L1633.75 2400.08 L1637.58 2404.41 L1641.54 2408.62 L1645.38 2412.71 L1649.22 2416.67 L1653.18 2420.63 L1657.01 2424.46 L1660.97 2428.17 L1664.81 2431.76 L1668.77 2435.35 L1672.61 2438.69 L1676.44 2442.16 L1680.40 2445.38 L1684.24 2448.47 L1688.20 2451.56 L1692.03 2454.53 L1695.87 2457.50 L1699.83 2460.23 L1703.67 2462.95 L1707.63 2465.55 L1711.46 2468.15" stroke-linecap="round" stroke-linejoin="round" style="fill:none;stroke:#2D6D66;stroke-width:6.48"/>
	<line x1="356.40" y1="2523.59" x2="356.40" y2="444.40" style="stroke:#000000;stroke-width:4.32"/>
	<line x1="356.40" y1="2523.59" x2="326.45" y2="2523.59" style="stroke:#000000;stroke-width:4.32"/>
	<text x="288.92" y="2523.59" style="font-family:'Helvetica';font-size:74.99px;fill:#000000" transform="rotate(-90 288.92,2523.59)" text-anchor="middle">0</text>
	<line x1="356.40" y1="2015.70" x2="326.45" y2="2015.70" style="stroke:#000000;stroke-width:4.32"/>
	<text x="288.92" y="2015.70" style="font-family:'Helvetica';font-size:74.99px;fill:#000000" transform="rotate(-90 288.92,2015.70)" text-anchor="middle">.2</text>
	<line x1="356.40" y1="1507.69" x2="326.45" y2="1507.69" style="stroke:#000000;stroke-width:4.32"/>
	<text x="288.92" y="1507.69" style="font-family:'Helvetica';font-size:74.99px;fill:#000000" transform="rotate(-90 288.92,1507.69)" text-anchor="middle">.4</text>
	<line x1="356.40" y1="999.81" x2="326.45" y2="999.81" style="stroke:#000000;stroke-width:4.32"/>
	<text x="288.92" y="999.81" style="font-family:'Helvetica';font-size:74.99px;fill:#000000" transform="rotate(-90 288.92,999.81)" text-anchor="middle">.6</text>
	<line x1="356.40" y1="491.92" x2="326.45" y2="491.92" style="stroke:#000000;stroke-width:4.32"/>
	<text x="288.92" y="491.92" style="font-family:'Helvetica';font-size:74.99px;fill:#000000" transform="rotate(-90 288.92,491.92)" text-anchor="middle">.8</text>
	<text x="206.38" y="1483.93" style="font-family:'Helvetica';font-size:74.99px;fill:#000000" transform="rotate(-90 206.38,1483.93)" text-anchor="middle">Density</text>
	<line x1="356.40" y1="2523.59" x2="1904.39" y2="2523.59" style="stroke:#000000;stroke-width:4.32"/>
	<line x1="403.92" y1="2523.59" x2="403.92" y2="2553.54" style="stroke:#000000;stroke-width:4.32"/>
	<text x="403.92" y="2620.95" style="font-family:'Helvetica';font-size:74.99px;fill:#000000" text-anchor="middle">0</text>
	<line x1="767.13" y1="2523.59" x2="767.13" y2="2553.54" style="stroke:#000000;stroke-width:4.32"/>
	<text x="767.13" y="2620.95" style="font-family:'Helvetica';font-size:74.99px;fill:#000000" text-anchor="middle">5</text>
	<line x1="1130.33" y1="2523.59" x2="1130.33" y2="2553.54" style="stroke:#000000;stroke-width:4.32"/>
	<text x="1130.33" y="2620.95" style="font-family:'Helvetica';font-size:74.99px;fill:#000000" text-anchor="middle">10</text>
	<line x1="1493.66" y1="2523.59" x2="1493.66" y2="2553.54" style="stroke:#000000;stroke-width:4.32"/>
	<text x="1493.66" y="2620.95" style="font-family:'Helvetica';font-size:74.99px;fill:#000000" text-anchor="middle">15</text>
	<line x1="1856.87" y1="2523.59" x2="1856.87" y2="2553.54" style="stroke:#000000;stroke-width:4.32"/>
	<text x="1856.87" y="2620.95" style="font-family:'Helvetica';font-size:74.99px;fill:#000000" text-anchor="middle">20</text>
	<text x="1130.33" y="2703.49" style="font-family:'Helvetica';font-size:74.99px;fill:#000000" text-anchor="middle">Years of Education</text>
	<text x="1130.33" y="399.98" style="font-family:'Helvetica';font-size:104.94px;fill:#1E2D53" text-anchor="middle">Non-Smokers</text>
	<rect x="1980.00" y="237.98" width="1916.52" height="2578.66" style="fill:#EAF2F3"/>
	<rect x="1982.16" y="240.14" width="1912.20" height="2574.34" style="fill:none;stroke:#EAF2F3;stroke-width:4.32"/>
	<rect x="2198.05" y="444.40" width="1622.86" height="2079.19" style="fill:#FFFFFF"/>
	<rect x="2200.21" y="446.56" width="1618.54" height="2074.87" style="fill:none;stroke:#FFFFFF;stroke-width:4.32"/>
	<line x1="2198.05" y1="2523.59" x2="3820.91" y2="2523.59" style="stroke:#EAF2F3;stroke-width:6.48"/>
	<line x1="2198.05" y1="1846.41" x2="3820.91" y2="1846.41" style="stroke:#EAF2F3;stroke-width:6.48"/>
	<line x1="2198.05" y1="1169.10" x2="3820.91" y2="1169.10" style="stroke:#EAF2F3;stroke-width:6.48"/>
	<line x1="2198.05" y1="491.92" x2="3820.91" y2="491.92" style="stroke:#EAF2F3;stroke-width:6.48"/>
	<rect x="2703.94" y="2504.90" width="65.46" height="18.69" style="fill:#CAC27E"/>
	<rect x="2707.18" y="2508.14" width="58.98" height="12.21" style="fill:none;stroke:#D7D29E;stroke-width:6.48"/>
	<rect x="2769.40" y="2504.90" width="65.46" height="18.69" style="fill:#CAC27E"/>
	<rect x="2772.64" y="2508.14" width="58.98" height="12.21" style="fill:none;stroke:#D7D29E;stroke-width:6.48"/>
	<rect x="2834.86" y="2374.47" width="65.46" height="149.12" style="fill:#CAC27E"/>
	<rect x="2838.10" y="2377.71" width="58.98" height="142.64" style="fill:none;stroke:#D7D29E;stroke-width:6.48"/>
	<rect x="2900.33" y="2244.03" width="65.46" height="279.56" style="fill:#CAC27E"/>
	<rect x="2903.57" y="2247.27" width="58.98" height="273.08" style="fill:none;stroke:#D7D29E;stroke-width:6.48"/>
	<rect x="2965.79" y="2039.09" width="65.46" height="484.50" style="fill:#CAC27E"/>
	<rect x="2969.03" y="2042.33" width="58.98" height="478.02" style="fill:none;stroke:#D7D29E;stroke-width:6.48"/>
	<rect x="3031.26" y="2132.28" width="65.46" height="391.31" style="fill:#CAC27E"/>
	<rect x="3034.50" y="2135.52" width="58.98" height="384.83" style="fill:none;stroke:#D7D29E;stroke-width:6.48"/>
	<rect x="3162.31" y="678.79" width="65.46" height="1844.80" style="fill:#CAC27E"/>
	<rect x="3165.55" y="682.03" width="58.98" height="1838.32" style="fill:none;stroke:#D7D29E;stroke-width:6.48"/>
	<rect x="3227.77" y="2188.09" width="65.46" height="335.50" style="fill:#CAC27E"/>
	<rect x="3231.01" y="2191.33" width="58.98" height="329.02" style="fill:none;stroke:#D7D29E;stroke-width:6.48"/>
	<rect x="3293.24" y="2262.72" width="65.46" height="260.87" style="fill:#CAC27E"/>
	<rect x="3296.47" y="2265.96" width="58.98" height="254.39" style="fill:none;stroke:#D7D29E;stroke-width:6.48"/>
	<rect x="3358.70" y="2486.34" width="65.46" height="37.25" style="fill:#CAC27E"/>
	<rect x="3361.94" y="2489.58" width="58.98" height="30.77" style="fill:none;stroke:#D7D29E;stroke-width:6.48"/>
	<rect x="3424.16" y="2430.40" width="65.46" height="93.19" style="fill:#CAC27E"/>
	<rect x="3427.40" y="2433.64" width="58.98" height="86.71" style="fill:none;stroke:#D7D29E;stroke-width:6.48"/>
	<rect x="3555.09" y="2486.34" width="65.59" height="37.25" style="fill:#CAC27E"/>
	<rect x="3558.33" y="2489.58" width="59.11" height="30.77" style="fill:none;stroke:#D7D29E;stroke-width:6.48"/>
	<path d=" M2703.81 2518.64 L2706.91 2518.27 L2710.00 2517.90 L2713.09 2517.52 L2716.07 2517.03 L2719.16 2516.66 L2722.25 2516.16 L2725.35 2515.54 L2728.32 2515.05 L2731.41 2514.43 L2734.50 2513.81 L2737.60 2513.07 L2740.69 2512.33 L2743.66 2511.58 L2746.76 2510.84 L2749.85 2509.98 L2752.94 2509.11 L2755.91 2508.12 L2759.01 2507.13 L2762.10 2506.02 L2765.19 2504.90 L2768.16 2503.79 L2771.26 2502.55 L2774.35 2501.19 L2777.45 2499.83 L2780.54 2498.34 L2783.51 2496.86 L2786.60 2495.25 L2789.70 2493.52 L2792.79 2491.78 L2795.76 2489.93 L2798.85 2487.95 L2801.95 2485.97 L2805.04 2483.74 L2808.14 2481.51 L2811.11 2479.16 L2814.20 2476.81 L2817.29 2474.21 L2820.39 2471.49 L2823.36 2468.77 L2826.45 2465.80 L2829.54 2462.83 L2832.64 2459.73 L2835.73 2456.39 L2838.70 2452.93 L2841.80 2449.46 L2844.89 2445.75 L2847.98 2441.91 L2850.95 2437.95 L2854.05 2433.87 L2857.14 2429.54 L2860.23 2425.08 L2863.33 2420.50 L2866.30 2415.80 L2869.39 2410.85 L2872.49 2405.90 L2875.58 2400.58 L2878.55 2395.26 L2881.64 2389.69 L2884.74 2383.99 L2887.83 2378.05 L2890.92 2371.99 L2893.89 2365.68 L2896.99 2359.24 L2900.08 2352.68 L2903.18 2346.00 L2906.14 2339.07 L2909.24 2331.89 L2912.33 2324.59 L2915.43 2317.17 L2918.40 2309.49 L2921.49 2301.70 L2924.58 2293.78 L2927.68 2285.73 L2930.77 2277.44 L2933.74 2268.90 L2936.84 2260.36 L2939.93 2251.58 L2943.02 2242.67 L2945.99 2233.63 L2949.09 2224.48 L2952.18 2215.19 L2955.27 2205.79 L2958.37 2196.26 L2961.34 2186.61 L2964.43 2176.83 L2967.53 2166.93 L2970.62 2156.91 L2973.59 2146.88 L2976.68 2136.73 L2979.78 2126.59 L2982.87 2116.31 L2985.96 2105.92 L2988.93 2095.65 L2992.03 2085.25 L2995.12 2074.73 L2998.22 2064.34 L3001.18 2053.94 L3004.28 2043.55 L3007.37 2033.15 L3010.47 2022.76 L3013.56 2012.36 L3016.53 2002.09 L3019.62 1991.94 L3022.72 1981.79 L3025.81 1971.77 L3028.78 1961.75 L3031.88 1951.97 L3034.97 1942.19 L3038.06 1932.66 L3041.03 1923.26 L3044.13 1913.98 L3047.22 1904.94 L3050.31 1896.03 L3053.41 1887.25 L3056.38 1878.83 L3059.47 1870.54 L3062.57 1862.50 L3065.66 1854.70 L3068.63 1847.15 L3071.72 1839.85 L3074.82 1832.79 L3077.91 1826.11 L3081.00 1819.68 L3083.97 1813.61 L3087.07 1807.80 L3090.16 1802.23 L3093.26 1797.15 L3096.22 1792.33 L3099.32 1787.75 L3102.41 1783.66 L3105.51 1779.95 L3108.60 1776.49 L3111.57 1773.39 L3114.66 1770.79 L3117.76 1768.44 L3120.85 1766.59 L3123.82 1765.10 L3126.91 1763.86 L3130.01 1763.12 L3133.10 1762.75 L3136.20 1762.75 L3139.17 1763.25 L3142.26 1763.99 L3145.35 1765.23 L3148.45 1766.71 L3151.42 1768.69 L3154.51 1771.04 L3157.61 1773.76 L3160.70 1776.86 L3163.67 1780.20 L3166.76 1784.04 L3169.86 1788.24 L3172.95 1792.70 L3176.04 1797.65 L3179.01 1802.85 L3182.11 1808.29 L3185.20 1814.11 L3188.30 1820.30 L3191.26 1826.73 L3194.36 1833.54 L3197.45 1840.59 L3200.55 1847.89 L3203.64 1855.44 L3206.61 1863.24 L3209.70 1871.28 L3212.80 1879.57 L3215.89 1888.11 L3218.86 1896.90 L3221.95 1905.81 L3225.05 1914.84 L3228.14 1924.13 L3231.24 1933.65 L3234.21 1943.18 L3237.30 1952.96 L3240.39 1962.74 L3243.49 1972.76 L3246.46 1982.78 L3249.55 1992.93 L3252.64 2003.08 L3255.74 2013.48 L3258.83 2023.75 L3261.80 2034.14 L3264.90 2044.54 L3267.99 2054.93 L3271.08 2065.45 L3274.05 2075.85 L3277.15 2086.24 L3280.24 2096.64 L3283.34 2107.03 L3286.43 2117.30 L3289.40 2127.58 L3292.49 2137.72 L3295.59 2147.87 L3298.68 2157.90 L3301.65 2167.92 L3304.74 2177.82 L3307.84 2187.47 L3310.93 2197.25 L3313.90 2206.78 L3316.99 2216.18 L3320.09 2225.47 L3323.18 2234.62 L3326.28 2243.66 L3329.25 2252.44 L3332.34 2261.23 L3335.43 2269.77 L3338.53 2278.18 L3341.50 2286.48 L3344.59 2294.64 L3347.68 2302.56 L3350.78 2310.36 L3353.87 2317.91 L3356.84 2325.34 L3359.94 2332.64 L3363.03 2339.69 L3366.12 2346.62 L3369.09 2353.43 L3372.19 2359.99 L3375.28 2366.30 L3378.38 2372.61 L3381.47 2378.67 L3384.44 2384.49 L3387.53 2390.18 L3390.63 2395.75 L3393.72 2401.20 L3396.69 2406.39 L3399.78 2411.34 L3402.88 2416.29 L3405.97 2421.00 L3409.07 2425.58 L3412.03 2430.03 L3415.13 2434.24 L3418.22 2438.32 L3421.32 2442.28 L3424.29 2446.12 L3427.38 2449.83 L3430.47 2453.30 L3433.57 2456.76 L3436.54 2459.98 L3439.63 2463.07 L3442.72 2466.17 L3445.82 2469.01 L3448.91 2471.86 L3451.88 2474.46 L3454.98 2477.06 L3458.07 2479.41 L3461.16 2481.76 L3464.13 2483.99 L3467.23 2486.09 L3470.32 2488.20 L3473.41 2490.05 L3476.51 2491.91 L3479.48 2493.76 L3482.57 2495.37 L3485.67 2496.98 L3488.76 2498.47 L3491.73 2499.95 L3494.82 2501.31 L3497.92 2502.67 L3501.01 2503.91 L3504.11 2505.03 L3507.07 2506.14 L3510.17 2507.25 L3513.26 2508.24 L3516.36 2509.11 L3519.33 2510.10 L3522.42 2510.84 L3525.51 2511.71 L3528.61 2512.45 L3531.70 2513.19 L3534.67 2513.81 L3537.76 2514.43 L3540.86 2515.05 L3543.95 2515.67 L3546.92 2516.16 L3550.02 2516.66 L3553.11 2517.15 L3556.20 2517.52 L3559.30 2518.02 L3562.27 2518.39 L3565.36 2518.76 L3568.45 2519.01 L3571.55 2519.38 L3574.52 2519.63 L3577.61 2520.00 L3580.71 2520.25 L3583.80 2520.50 L3586.77 2520.74 L3589.86 2520.87 L3592.96 2521.11 L3596.05 2521.24 L3599.14 2521.49 L3602.11 2521.61 L3605.21 2521.73 L3608.30 2521.86 L3611.40 2521.98 L3614.37 2522.10 L3617.46 2522.23 L3620.55 2522.35" stroke-linecap="round" stroke-linejoin="round" style="fill:none;stroke:#2D6D66;stroke-width:6.48"/>
	<line x1="2198.05" y1="2523.59" x2="2198.05" y2="444.40" style="stroke:#000000;stroke-width:4.32"/>
	<line x1="2198.05" y1="2523.59" x2="2167.98" y2="2523.59" style="stroke:#000000;stroke-width:4.32"/>
	<text x="2130.44" y="2523.59" style="font-family:'Helvetica';font-size:74.99px;fill:#000000" transform="rotate(-90 2130.44,2523.59)" text-anchor="middle">0</text>
	<line x1="2198.05" y1="1846.41" x2="2167.98" y2="1846.41" style="stroke:#000000;stroke-width:4.32"/>
	<text x="2130.44" y="1846.41" style="font-family:'Helvetica';font-size:74.99px;fill:#000000" transform="rotate(-90 2130.44,1846.41)" text-anchor="middle">.2</text>
	<line x1="2198.05" y1="1169.10" x2="2167.98" y2="1169.10" style="stroke:#000000;stroke-width:4.32"/>
	<text x="2130.44" y="1169.10" style="font-family:'Helvetica';font-size:74.99px;fill:#000000" transform="rotate(-90 2130.44,1169.10)" text-anchor="middle">.4</text>
	<line x1="2198.05" y1="491.92" x2="2167.98" y2="491.92" style="stroke:#000000;stroke-width:4.32"/>
	<text x="2130.44" y="491.92" style="font-family:'Helvetica';font-size:74.99px;fill:#000000" transform="rotate(-90 2130.44,491.92)" text-anchor="middle">.6</text>
	<line x1="2198.05" y1="2523.59" x2="3820.91" y2="2523.59" style="stroke:#000000;stroke-width:4.32"/>
	<line x1="2245.57" y1="2523.59" x2="2245.57" y2="2553.54" style="stroke:#000000;stroke-width:4.32"/>
	<text x="2245.57" y="2620.95" style="font-family:'Helvetica';font-size:74.99px;fill:#000000" text-anchor="middle">0</text>
	<line x1="2627.46" y1="2523.59" x2="2627.46" y2="2553.54" style="stroke:#000000;stroke-width:4.32"/>
	<text x="2627.46" y="2620.95" style="font-family:'Helvetica';font-size:74.99px;fill:#000000" text-anchor="middle">5</text>
	<line x1="3009.48" y1="2523.59" x2="3009.48" y2="2553.54" style="stroke:#000000;stroke-width:4.32"/>
	<text x="3009.48" y="2620.95" style="font-family:'Helvetica';font-size:74.99px;fill:#000000" text-anchor="middle">10</text>
	<line x1="3391.49" y1="2523.59" x2="3391.49" y2="2553.54" style="stroke:#000000;stroke-width:4.32"/>
	<text x="3391.49" y="2620.95" style="font-family:'Helvetica';font-size:74.99px;fill:#000000" text-anchor="middle">15</text>
	<line x1="3773.39" y1="2523.59" x2="3773.39" y2="2553.54" style="stroke:#000000;stroke-width:4.32"/>
	<text x="3773.39" y="2620.95" style="font-family:'Helvetica';font-size:74.99px;fill:#000000" text-anchor="middle">20</text>
	<text x="3009.48" y="2703.49" style="font-family:'Helvetica';font-size:74.99px;fill:#000000" text-anchor="middle">Years of Education</text>
	<text x="3009.48" y="399.98" style="font-family:'Helvetica';font-size:104.94px;fill:#1E2D53" text-anchor="middle">Non-Smokers</text>
	<text x="1980.00" y="178.60" style="font-family:'Helvetica';font-size:139.96px;fill:#1E2D53" text-anchor="middle">Histograms of Mother's Education Level</text>
</svg>
