<?xml version="1.0" encoding="UTF-8" standalone="no"?>
<!-- This is a Stata 15.1 generated SVG file (http://www.stata.com) -->

<svg version="1.1" width="5.50in" height="4.00in" viewBox="0 0 3960 2880" xmlns="http://www.w3.org/2000/svg" xmlns:xlink="http://www.w3.org/1999/xlink">
	<desc>Stata Graph - Graph</desc>
	<rect x="0" y="0" width="3960" height="2880" style="fill:#EAF2F3;stroke:none"/>
	<rect x="0.00" y="0.00" width="3959.88" height="2880.00" style="fill:#EAF2F3"/>
	<rect x="2.88" y="2.88" width="3954.12" height="2874.24" style="fill:none;stroke:#EAF2F3;stroke-width:5.76"/>
	<rect x="383.01" y="275.35" width="3476.01" height="2213.83" style="fill:#FFFFFF"/>
	<rect x="385.89" y="278.23" width="3470.25" height="2208.07" style="fill:none;stroke:#FFFFFF;stroke-width:5.76"/>
	<line x1="383.01" y1="2489.19" x2="3859.02" y2="2489.19" style="stroke:#EAF2F3;stroke-width:8.64"/>
	<line x1="383.01" y1="1772.40" x2="3859.02" y2="1772.40" style="stroke:#EAF2F3;stroke-width:8.64"/>
	<line x1="383.01" y1="1055.50" x2="3859.02" y2="1055.50" style="stroke:#EAF2F3;stroke-width:8.64"/>
	<rect x="499.45" y="798.95" width="106.43" height="1690.23" style="fill:#CAC27E"/>
	<rect x="503.77" y="803.27" width="97.79" height="1681.59" style="fill:none;stroke:#D7D29E;stroke-width:8.64"/>
	<rect x="605.88" y="2473.47" width="106.30" height="15.72" style="fill:#CAC27E"/>
	<rect x="610.20" y="2477.79" width="97.66" height="7.08" style="fill:none;stroke:#D7D29E;stroke-width:8.64"/>
	<rect x="712.18" y="2476.31" width="106.30" height="12.87" style="fill:#CAC27E"/>
	<rect x="716.50" y="2480.63" width="97.66" height="4.23" style="fill:none;stroke:#D7D29E;stroke-width:8.64"/>
	<rect x="818.48" y="2453.42" width="106.30" height="35.76" style="fill:#CAC27E"/>
	<rect x="822.80" y="2457.74" width="97.66" height="27.13" style="fill:none;stroke:#D7D29E;stroke-width:8.64"/>
	<rect x="924.78" y="2476.31" width="106.42" height="12.87" style="fill:#CAC27E"/>
	<rect x="929.10" y="2480.63" width="97.79" height="4.23" style="fill:none;stroke:#D7D29E;stroke-width:8.64"/>
	<rect x="1031.21" y="2487.82" width="106.30" height="1.36" style="fill:#CAC27E"/>
	<rect x="1035.53" y="2484.87" width="97.66" height="7.28" style="fill:none;stroke:#D7D29E;stroke-width:8.64"/>
	<rect x="1137.51" y="2410.35" width="106.30" height="78.83" style="fill:#CAC27E"/>
	<rect x="1141.83" y="2414.67" width="97.66" height="70.19" style="fill:none;stroke:#D7D29E;stroke-width:8.64"/>
	<rect x="1243.81" y="2482.01" width="106.30" height="7.18" style="fill:#CAC27E"/>
	<rect x="1248.13" y="2484.87" width="97.66" height="1.46" style="fill:none;stroke:#D7D29E;stroke-width:8.64"/>
	<rect x="1456.54" y="2461.96" width="106.30" height="27.23" style="fill:#CAC27E"/>
	<rect x="1460.86" y="2466.28" width="97.66" height="18.59" style="fill:none;stroke:#D7D29E;stroke-width:8.64"/>
	<rect x="1775.44" y="2400.33" width="106.30" height="88.86" style="fill:#CAC27E"/>
	<rect x="1779.76" y="2404.65" width="97.66" height="80.22" style="fill:none;stroke:#D7D29E;stroke-width:8.64"/>
	<rect x="2413.50" y="2482.01" width="106.30" height="7.18" style="fill:#CAC27E"/>
	<rect x="2417.82" y="2484.87" width="97.66" height="1.46" style="fill:none;stroke:#D7D29E;stroke-width:8.64"/>
	<rect x="3051.43" y="2480.65" width="106.30" height="8.54" style="fill:#CAC27E"/>
	<rect x="3055.75" y="2484.87" width="97.66" height="0.10" style="fill:none;stroke:#D7D29E;stroke-width:8.64"/>
	<rect x="3476.76" y="2487.82" width="106.30" height="1.36" style="fill:#CAC27E"/>
	<rect x="3481.08" y="2484.87" width="97.66" height="7.28" style="fill:none;stroke:#D7D29E;stroke-width:8.64"/>
	<rect x="3689.36" y="2487.82" width="106.30" height="1.36" style="fill:#CAC27E"/>
	<rect x="3693.68" y="2484.87" width="97.66" height="7.28" style="fill:none;stroke:#D7D29E;stroke-width:8.64"/>
	<path d=" M499.45 2287.59 L510.47 2285.73 L521.48 2283.88 L532.50 2282.27 L543.51 2280.91 L554.52 2279.55 L565.54 2278.43 L576.67 2277.44 L587.69 2276.58 L598.70 2275.96 L609.72 2275.46 L620.73 2275.09 L631.74 2274.97 L642.76 2274.97 L653.77 2275.09 L664.78 2275.46 L675.80 2275.96 L686.81 2276.58 L697.83 2277.44 L708.96 2278.43 L719.98 2279.55 L730.99 2280.91 L742.00 2282.39 L753.02 2284.00 L764.03 2285.73 L775.05 2287.71 L786.06 2289.69 L797.07 2291.92 L808.09 2294.15 L819.10 2296.62 L830.12 2299.22 L841.25 2301.82 L852.27 2304.67 L863.28 2307.51 L874.29 2310.48 L885.31 2313.58 L896.32 2316.67 L907.34 2319.89 L918.35 2323.23 L929.36 2326.57 L940.38 2329.91 L951.39 2333.38 L962.40 2336.97 L973.54 2340.43 L984.55 2344.02 L995.57 2347.61 L1006.58 2351.20 L1017.60 2354.91 L1028.61 2358.50 L1039.62 2362.21 L1050.64 2365.80 L1061.65 2369.39 L1072.66 2372.98 L1083.68 2376.57 L1094.69 2380.16 L1105.83 2383.75 L1116.84 2387.21 L1127.86 2390.68 L1138.87 2394.14 L1149.88 2397.48 L1160.90 2400.83 L1171.91 2404.04 L1182.93 2407.26 L1193.94 2410.48 L1204.95 2413.57 L1215.97 2416.54 L1226.98 2419.51 L1238.12 2422.36 L1249.13 2425.20 L1260.15 2427.93 L1271.16 2430.65 L1282.17 2433.25 L1293.19 2435.85 L1304.20 2438.20 L1315.21 2440.67 L1326.23 2442.90 L1337.24 2445.13 L1348.26 2447.36 L1359.27 2449.46 L1370.41 2451.44 L1381.42 2453.42 L1392.43 2455.28 L1403.45 2457.01 L1414.46 2458.74 L1425.48 2460.35 L1436.49 2461.96 L1447.50 2463.44 L1458.52 2464.93 L1469.53 2466.29 L1480.55 2467.65 L1491.56 2468.89 L1502.70 2470.13 L1513.71 2471.24 L1524.72 2472.35 L1535.74 2473.47 L1546.75 2474.46 L1557.77 2475.32 L1568.78 2476.19 L1579.79 2477.06 L1590.81 2477.92 L1601.82 2478.67 L1612.83 2479.28 L1623.97 2480.03 L1634.98 2480.65 L1646.00 2481.27 L1657.01 2481.76 L1668.03 2482.26 L1679.04 2482.75 L1690.05 2483.25 L1701.07 2483.74 L1712.08 2484.11 L1723.10 2484.48 L1734.11 2484.85 L1745.12 2485.23 L1756.26 2485.47 L1767.27 2485.84 L1778.29 2486.09 L1789.30 2486.34 L1800.32 2486.59 L1811.33 2486.71 L1822.34 2486.96 L1833.36 2487.21 L1844.37 2487.33 L1855.38 2487.45 L1866.40 2487.58 L1877.41 2487.82 L1888.55 2487.95 L1899.56 2488.07 L1910.58 2488.07 L1921.59 2488.20 L1932.60 2488.32 L1943.62 2488.44 L1954.63 2488.44 L1965.64 2488.57 L1976.66 2488.57 L1987.67 2488.69 L1998.69 2488.69 L2009.70 2488.81 L2020.84 2488.81 L2031.85 2488.81 L2042.87 2488.94 L2053.88 2488.94 L2064.89 2488.94 L2075.91 2488.94 L2086.92 2489.06 L2097.93 2489.06 L2108.95 2489.06 L2119.96 2489.06 L2130.97 2489.06 L2141.99 2489.19 L2153.13 2489.19 L2164.14 2489.19 L2175.15 2489.19 L2186.17 2489.19 L2197.18 2489.19 L2208.20 2489.19 L2219.21 2489.19 L2230.22 2489.19 L2241.24 2489.19 L2252.25 2489.19 L2263.26 2489.19 L2274.28 2489.19 L2285.41 2489.19 L2296.43 2489.19 L2307.44 2489.19 L2318.46 2489.19 L2329.47 2489.31 L2340.48 2489.31 L2351.50 2489.31 L2362.51 2489.31 L2373.53 2489.31 L2384.54 2489.31 L2395.55 2489.31 L2406.57 2489.31 L2417.70 2489.31 L2428.72 2489.31 L2439.73 2489.31 L2450.74 2489.31 L2461.76 2489.31 L2472.77 2489.31 L2483.79 2489.31 L2494.80 2489.31 L2505.81 2489.31 L2516.83 2489.31 L2527.84 2489.31 L2538.86 2489.31 L2549.99 2489.31 L2561.01 2489.31 L2572.02 2489.31 L2583.03 2489.31 L2594.05 2489.31 L2605.06 2489.31 L2616.07 2489.31 L2627.09 2489.31 L2638.10 2489.31 L2649.12 2489.31 L2660.13 2489.31 L2671.14 2489.31 L2682.28 2489.31 L2693.30 2489.31 L2704.31 2489.31 L2715.32 2489.31 L2726.34 2489.31 L2737.35 2489.31 L2748.36 2489.31 L2759.38 2489.31 L2770.39 2489.31 L2781.41 2489.31 L2792.42 2489.31 L2803.43 2489.31 L2814.57 2489.31 L2825.58 2489.31 L2836.60 2489.31 L2847.61 2489.31 L2858.62 2489.31 L2869.64 2489.31 L2880.65 2489.31 L2891.67 2489.31 L2902.68 2489.31 L2913.69 2489.31 L2924.71 2489.31 L2935.72 2489.31 L2946.86 2489.31 L2957.87 2489.31 L2968.89 2489.31 L2979.90 2489.31 L2990.91 2489.31 L3001.93 2489.31 L3012.94 2489.31 L3023.95 2489.31 L3034.97 2489.31 L3045.98 2489.31 L3057.00 2489.31 L3068.01 2489.31 L3079.15 2489.31 L3090.16 2489.31 L3101.18 2489.31 L3112.19 2489.31 L3123.20 2489.31 L3134.22 2489.31 L3145.23 2489.31 L3156.24 2489.31 L3167.26 2489.31 L3178.27 2489.31 L3189.28 2489.31 L3200.30 2489.31 L3211.44 2489.31 L3222.45 2489.31 L3233.46 2489.31 L3244.48 2489.31 L3255.49 2489.31 L3266.51 2489.31 L3277.52 2489.31 L3288.53 2489.31 L3299.55 2489.31 L3310.56 2489.31 L3321.57 2489.31 L3332.59 2489.31 L3343.72 2489.31 L3354.74 2489.31 L3365.75 2489.31 L3376.77 2489.31 L3387.78 2489.31 L3398.79 2489.31 L3409.81 2489.31 L3420.82 2489.31 L3431.84 2489.31 L3442.85 2489.31 L3453.86 2489.31 L3464.88 2489.31 L3476.01 2489.31 L3487.03 2489.31 L3498.04 2489.31 L3509.05 2489.31 L3520.07 2489.31 L3531.08 2489.31 L3542.10 2489.31 L3553.11 2489.31 L3564.12 2489.31 L3575.14 2489.31 L3586.15 2489.31 L3597.16 2489.31 L3608.30 2489.31 L3619.32 2489.31 L3630.33 2489.31 L3641.34 2489.31 L3652.36 2489.31 L3663.37 2489.31 L3674.39 2489.31 L3685.40 2489.31 L3696.41 2489.31 L3707.43 2489.31 L3718.44 2489.31 L3729.45 2489.31 L3740.59 2489.31 L3751.61 2489.31 L3762.62 2489.31 L3773.63 2489.31 L3784.65 2489.31 L3795.66 2489.31" stroke-linecap="round" stroke-linejoin="round" style="fill:none;stroke:#2D6D66;stroke-width:8.64"/>
	<line x1="383.01" y1="2489.19" x2="383.01" y2="275.35" style="stroke:#000000;stroke-width:5.76"/>
	<line x1="383.01" y1="2489.19" x2="343.04" y2="2489.19" style="stroke:#000000;stroke-width:5.76"/>
	<text x="292.93" y="2489.19" style="font-family:'Helvetica';font-size:99.99px;fill:#000000" transform="rotate(-90 292.93,2489.19)" text-anchor="middle">0</text>
	<line x1="383.01" y1="1772.40" x2="343.04" y2="1772.40" style="stroke:#000000;stroke-width:5.76"/>
	<text x="292.93" y="1772.40" style="font-family:'Helvetica';font-size:99.99px;fill:#000000" transform="rotate(-90 292.93,1772.40)" text-anchor="middle">500</text>
	<line x1="383.01" y1="1055.50" x2="343.04" y2="1055.50" style="stroke:#000000;stroke-width:5.76"/>
	<text x="292.93" y="1055.50" style="font-family:'Helvetica';font-size:99.99px;fill:#000000" transform="rotate(-90 292.93,1055.50)" text-anchor="middle">1000</text>
	<line x1="383.01" y1="338.71" x2="343.04" y2="338.71" style="stroke:#000000;stroke-width:5.76"/>
	<text x="292.93" y="338.71" style="font-family:'Helvetica';font-size:99.99px;fill:#000000" transform="rotate(-90 292.93,338.71)" text-anchor="middle">1500</text>
	<text x="190.71" y="1382.33" style="font-family:'Helvetica';font-size:99.99px;fill:#000000" transform="rotate(-90 190.71,1382.33)" text-anchor="middle">Frequency</text>
	<line x1="383.01" y1="2489.19" x2="3859.02" y2="2489.19" style="stroke:#000000;stroke-width:5.76"/>
	<line x1="499.45" y1="2489.19" x2="499.45" y2="2529.16" style="stroke:#000000;stroke-width:5.76"/>
	<text x="499.45" y="2619.14" style="font-family:'Helvetica';font-size:99.99px;fill:#000000" text-anchor="middle">0</text>
	<line x1="1158.80" y1="2489.19" x2="1158.80" y2="2529.16" style="stroke:#000000;stroke-width:5.76"/>
	<text x="1158.80" y="2619.14" style="font-family:'Helvetica';font-size:99.99px;fill:#000000" text-anchor="middle">10</text>
	<line x1="1818.01" y1="2489.19" x2="1818.01" y2="2529.16" style="stroke:#000000;stroke-width:5.76"/>
	<text x="1818.01" y="2619.14" style="font-family:'Helvetica';font-size:99.99px;fill:#000000" text-anchor="middle">20</text>
	<line x1="2477.23" y1="2489.19" x2="2477.23" y2="2529.16" style="stroke:#000000;stroke-width:5.76"/>
	<text x="2477.23" y="2619.14" style="font-family:'Helvetica';font-size:99.99px;fill:#000000" text-anchor="middle">30</text>
	<line x1="3136.44" y1="2489.19" x2="3136.44" y2="2529.16" style="stroke:#000000;stroke-width:5.76"/>
	<text x="3136.44" y="2619.14" style="font-family:'Helvetica';font-size:99.99px;fill:#000000" text-anchor="middle">40</text>
	<line x1="3795.66" y1="2489.19" x2="3795.66" y2="2529.16" style="stroke:#000000;stroke-width:5.76"/>
	<text x="3795.66" y="2619.14" style="font-family:'Helvetica';font-size:99.99px;fill:#000000" text-anchor="middle">50</text>
	<text x="2121.07" y="2729.16" style="font-family:'Helvetica';font-size:99.99px;fill:#000000" text-anchor="middle">Number of Cigarettes Smoked</text>
	<text x="2121.07" y="215.98" style="font-family:'Helvetica';font-size:139.96px;fill:#1E2D53" text-anchor="middle">Histogram of Daily Cigarettes Smoked While Pregnant</text>
</svg>
