<?xml version="1.0" encoding="UTF-8" standalone="no"?>
<!-- This is a Stata 15.1 generated SVG file (http://www.stata.com) -->

<svg version="1.1" width="5.50in" height="4.00in" viewBox="0 0 3960 2880" xmlns="http://www.w3.org/2000/svg" xmlns:xlink="http://www.w3.org/1999/xlink">
	<desc>Stata Graph - Graph</desc>
	<rect x="0" y="0" width="3960" height="2880" style="fill:#EAF2F3;stroke:none"/>
	<rect x="0.00" y="0.00" width="3959.88" height="2880.00" style="fill:#EAF2F3"/>
	<rect x="2.88" y="2.88" width="3954.12" height="2874.24" style="fill:none;stroke:#EAF2F3;stroke-width:5.76"/>
	<rect x="383.01" y="275.35" width="3476.01" height="2099.36" style="fill:#FFFFFF"/>
	<rect x="385.89" y="278.23" width="3470.25" height="2093.60" style="fill:none;stroke:#FFFFFF;stroke-width:5.76"/>
	<line x1="383.01" y1="2374.71" x2="3859.02" y2="2374.71" style="stroke:#EAF2F3;stroke-width:8.64"/>
	<line x1="383.01" y1="1717.95" x2="3859.02" y2="1717.95" style="stroke:#EAF2F3;stroke-width:8.64"/>
	<line x1="383.01" y1="1061.19" x2="3859.02" y2="1061.19" style="stroke:#EAF2F3;stroke-width:8.64"/>
	<line x1="383.01" y1="404.43" x2="3859.02" y2="404.43" style="stroke:#EAF2F3;stroke-width:8.64"/>
	<rect x="561.83" y="1619.44" width="231.04" height="755.27" style="fill:#CAC27E"/>
	<rect x="566.14" y="1623.76" width="222.40" height="746.63" style="fill:none;stroke:#D7D29E;stroke-width:8.64"/>
	<rect x="792.87" y="1422.43" width="230.92" height="952.29" style="fill:#CAC27E"/>
	<rect x="797.19" y="1426.75" width="222.28" height="943.65" style="fill:none;stroke:#D7D29E;stroke-width:8.64"/>
	<rect x="1023.78" y="371.51" width="231.04" height="2003.20" style="fill:#CAC27E"/>
	<rect x="1028.10" y="375.83" width="222.40" height="1994.56" style="fill:none;stroke:#D7D29E;stroke-width:8.64"/>
	<rect x="1254.83" y="2210.49" width="231.04" height="164.22" style="fill:#CAC27E"/>
	<rect x="1259.14" y="2214.81" width="222.40" height="155.58" style="fill:none;stroke:#D7D29E;stroke-width:8.64"/>
	<rect x="1485.87" y="1750.75" width="230.92" height="623.97" style="fill:#CAC27E"/>
	<rect x="1490.19" y="1755.07" width="222.28" height="615.33" style="fill:none;stroke:#D7D29E;stroke-width:8.64"/>
	<rect x="1716.78" y="338.71" width="231.04" height="2036.00" style="fill:#CAC27E"/>
	<rect x="1721.10" y="343.03" width="222.40" height="2027.36" style="fill:none;stroke:#D7D29E;stroke-width:8.64"/>
	<rect x="2409.78" y="2210.49" width="231.04" height="164.22" style="fill:#CAC27E"/>
	<rect x="2414.10" y="2214.81" width="222.40" height="155.58" style="fill:none;stroke:#D7D29E;stroke-width:8.64"/>
	<rect x="3102.78" y="2177.70" width="230.92" height="197.02" style="fill:#CAC27E"/>
	<rect x="3107.10" y="2182.02" width="222.28" height="188.38" style="fill:none;stroke:#D7D29E;stroke-width:8.64"/>
	<rect x="3333.70" y="2341.79" width="231.04" height="32.92" style="fill:#CAC27E"/>
	<rect x="3338.02" y="2346.11" width="222.40" height="24.28" style="fill:none;stroke:#D7D29E;stroke-width:8.64"/>
	<rect x="3564.74" y="2341.79" width="230.92" height="32.92" style="fill:#CAC27E"/>
	<rect x="3569.06" y="2346.11" width="222.28" height="24.28" style="fill:none;stroke:#D7D29E;stroke-width:8.64"/>
	<path d=" M561.83 1987.98 L572.59 1977.22 L583.36 1966.33 L594.25 1955.43 L605.01 1944.17 L615.90 1932.91 L626.67 1921.53 L637.44 1910.02 L648.33 1898.26 L659.09 1886.50 L669.98 1874.62 L680.75 1862.62 L691.51 1850.49 L702.40 1838.24 L713.17 1825.86 L724.06 1813.49 L734.83 1801.11 L745.59 1788.49 L756.48 1775.99 L767.25 1763.25 L778.14 1750.62 L788.91 1737.88 L799.67 1725.13 L810.56 1712.38 L821.33 1699.51 L832.22 1686.77 L842.99 1674.02 L853.75 1661.15 L864.64 1648.53 L875.41 1635.78 L886.30 1623.16 L897.06 1610.53 L907.83 1597.91 L918.72 1585.53 L929.49 1573.04 L940.38 1560.78 L951.14 1548.66 L961.91 1536.53 L972.80 1524.65 L983.57 1512.77 L994.46 1501.13 L1005.22 1489.63 L1015.99 1478.36 L1026.88 1467.23 L1037.64 1456.21 L1048.53 1445.45 L1059.30 1434.93 L1070.07 1424.53 L1080.96 1414.38 L1091.72 1404.48 L1102.61 1394.95 L1113.38 1385.55 L1124.14 1376.39 L1135.04 1367.60 L1145.80 1359.06 L1156.69 1350.77 L1167.46 1342.85 L1178.22 1335.18 L1189.11 1327.76 L1199.88 1320.83 L1210.77 1314.14 L1221.54 1307.71 L1232.30 1301.77 L1243.19 1296.07 L1253.96 1290.75 L1264.85 1285.80 L1275.62 1281.35 L1286.38 1277.14 L1297.27 1273.30 L1308.04 1269.84 L1318.93 1266.74 L1329.69 1264.02 L1340.46 1261.79 L1351.35 1259.94 L1362.12 1258.45 L1373.01 1257.34 L1383.77 1256.60 L1394.54 1256.23 L1405.43 1256.35 L1416.19 1256.84 L1427.09 1257.71 L1437.85 1258.95 L1448.62 1260.68 L1459.51 1262.78 L1470.27 1265.14 L1481.16 1267.98 L1491.93 1271.32 L1502.70 1274.91 L1513.59 1278.87 L1524.35 1283.20 L1535.24 1287.91 L1546.01 1293.10 L1556.78 1298.55 L1567.66 1304.37 L1578.43 1310.43 L1589.32 1316.99 L1600.09 1323.80 L1610.85 1330.97 L1621.74 1338.40 L1632.51 1346.19 L1643.40 1354.36 L1654.17 1362.65 L1664.93 1371.32 L1675.82 1380.35 L1686.59 1389.51 L1697.48 1399.04 L1708.24 1408.81 L1719.01 1418.71 L1729.90 1428.99 L1740.67 1439.38 L1751.56 1450.02 L1762.32 1460.91 L1773.09 1471.93 L1783.98 1483.19 L1794.75 1494.58 L1805.64 1506.21 L1816.40 1517.96 L1827.17 1529.85 L1838.06 1541.73 L1848.83 1553.85 L1859.71 1566.11 L1870.48 1578.48 L1881.25 1590.86 L1892.14 1603.36 L1902.90 1615.98 L1913.79 1628.60 L1924.56 1641.22 L1935.33 1653.97 L1946.22 1666.72 L1956.98 1679.46 L1967.87 1692.33 L1978.64 1705.08 L1989.40 1717.95 L2000.30 1730.70 L2011.06 1743.44 L2021.95 1756.07 L2032.72 1768.81 L2043.48 1781.44 L2054.37 1793.94 L2065.14 1806.44 L2076.03 1818.93 L2086.80 1831.31 L2097.56 1843.56 L2108.45 1855.69 L2119.22 1867.82 L2130.11 1879.82 L2140.88 1891.58 L2151.64 1903.33 L2162.53 1914.97 L2173.30 1926.48 L2184.19 1937.86 L2194.95 1949.12 L2205.72 1960.14 L2216.61 1971.15 L2227.38 1981.92 L2238.27 1992.56 L2249.03 2003.08 L2259.80 2013.35 L2270.69 2023.50 L2281.45 2033.52 L2292.34 2043.30 L2303.11 2052.95 L2313.88 2062.48 L2324.77 2071.76 L2335.53 2080.92 L2346.42 2089.96 L2357.19 2098.74 L2367.96 2107.28 L2378.85 2115.82 L2389.61 2123.99 L2400.50 2132.16 L2411.27 2140.08 L2422.03 2147.75 L2432.93 2155.30 L2443.69 2162.72 L2454.46 2169.90 L2465.35 2176.95 L2476.11 2183.76 L2487.00 2190.44 L2497.77 2197.00 L2508.54 2203.31 L2519.43 2209.50 L2530.19 2215.57 L2541.08 2221.38 L2551.85 2227.07 L2562.61 2232.52 L2573.51 2237.96 L2584.27 2243.16 L2595.16 2248.24 L2605.93 2253.06 L2616.69 2257.89 L2627.58 2262.47 L2638.35 2266.92 L2649.24 2271.25 L2660.01 2275.46 L2670.77 2279.55 L2681.66 2283.38 L2692.43 2287.22 L2703.32 2290.93 L2714.09 2294.40 L2724.85 2297.86 L2735.74 2301.08 L2746.51 2304.30 L2757.40 2307.39 L2768.16 2310.36 L2778.93 2313.21 L2789.82 2315.93 L2800.59 2318.53 L2811.48 2321.13 L2822.24 2323.60 L2833.01 2325.95 L2843.90 2328.18 L2854.66 2330.29 L2865.55 2332.39 L2876.32 2334.37 L2887.09 2336.35 L2897.98 2338.21 L2908.74 2339.94 L2919.63 2341.67 L2930.40 2343.28 L2941.17 2344.76 L2952.06 2346.25 L2962.82 2347.73 L2973.71 2349.10 L2984.48 2350.33 L2995.24 2351.57 L3006.14 2352.81 L3016.90 2353.92 L3027.79 2355.04 L3038.56 2356.03 L3049.32 2357.02 L3060.21 2358.01 L3070.98 2358.87 L3081.87 2359.74 L3092.64 2360.48 L3103.40 2361.35 L3114.29 2362.09 L3125.06 2362.71 L3135.95 2363.45 L3146.72 2364.07 L3157.48 2364.69 L3168.37 2365.18 L3179.14 2365.80 L3190.03 2366.30 L3200.79 2366.79 L3211.56 2367.16 L3222.45 2367.66 L3233.22 2368.03 L3244.11 2368.40 L3254.87 2368.77 L3265.64 2369.14 L3276.53 2369.52 L3287.30 2369.76 L3298.18 2370.13 L3308.95 2370.38 L3319.72 2370.63 L3330.61 2370.88 L3341.37 2371.12 L3352.26 2371.37 L3363.03 2371.62 L3373.80 2371.74 L3384.69 2371.99 L3395.45 2372.11 L3406.34 2372.36 L3417.11 2372.49 L3427.88 2372.61 L3438.76 2372.73 L3449.53 2372.86 L3460.42 2372.98 L3471.19 2373.10 L3481.95 2373.23 L3492.84 2373.35 L3503.61 2373.35 L3514.50 2373.48 L3525.27 2373.60 L3536.03 2373.60 L3546.92 2373.72 L3557.69 2373.85 L3568.58 2373.85 L3579.34 2373.97 L3590.11 2373.97 L3601.00 2374.09 L3611.77 2374.09 L3622.66 2374.09 L3633.42 2374.22 L3644.19 2374.22 L3655.08 2374.22 L3665.85 2374.34 L3676.74 2374.34 L3687.50 2374.34 L3698.27 2374.34 L3709.16 2374.34 L3719.93 2374.47 L3730.82 2374.47 L3741.58 2374.47 L3752.35 2374.47 L3763.24 2374.47 L3774.00 2374.47 L3784.89 2374.59 L3795.66 2374.59" stroke-linecap="round" stroke-linejoin="round" style="fill:none;stroke:#2D6D66;stroke-width:8.64"/>
	<line x1="383.01" y1="2374.71" x2="383.01" y2="275.35" style="stroke:#000000;stroke-width:5.76"/>
	<line x1="383.01" y1="2374.71" x2="343.04" y2="2374.71" style="stroke:#000000;stroke-width:5.76"/>
	<text x="292.93" y="2374.71" style="font-family:'Helvetica';font-size:99.99px;fill:#000000" transform="rotate(-90 292.93,2374.71)" text-anchor="middle">0</text>
	<line x1="383.01" y1="1717.95" x2="343.04" y2="1717.95" style="stroke:#000000;stroke-width:5.76"/>
	<text x="292.93" y="1717.95" style="font-family:'Helvetica';font-size:99.99px;fill:#000000" transform="rotate(-90 292.93,1717.95)" text-anchor="middle">20</text>
	<line x1="383.01" y1="1061.19" x2="343.04" y2="1061.19" style="stroke:#000000;stroke-width:5.76"/>
	<text x="292.93" y="1061.19" style="font-family:'Helvetica';font-size:99.99px;fill:#000000" transform="rotate(-90 292.93,1061.19)" text-anchor="middle">40</text>
	<line x1="383.01" y1="404.43" x2="343.04" y2="404.43" style="stroke:#000000;stroke-width:5.76"/>
	<text x="292.93" y="404.43" style="font-family:'Helvetica';font-size:99.99px;fill:#000000" transform="rotate(-90 292.93,404.43)" text-anchor="middle">60</text>
	<text x="190.71" y="1325.03" style="font-family:'Helvetica';font-size:99.99px;fill:#000000" transform="rotate(-90 190.71,1325.03)" text-anchor="middle">Frequency</text>
	<line x1="383.01" y1="2374.71" x2="3859.02" y2="2374.71" style="stroke:#000000;stroke-width:5.76"/>
	<line x1="495.87" y1="2374.71" x2="495.87" y2="2414.69" style="stroke:#000000;stroke-width:5.76"/>
	<text x="495.87" y="2504.54" style="font-family:'Helvetica';font-size:99.99px;fill:#000000" text-anchor="middle">0</text>
	<line x1="1155.83" y1="2374.71" x2="1155.83" y2="2414.69" style="stroke:#000000;stroke-width:5.76"/>
	<text x="1155.83" y="2504.54" style="font-family:'Helvetica';font-size:99.99px;fill:#000000" text-anchor="middle">10</text>
	<line x1="1815.78" y1="2374.71" x2="1815.78" y2="2414.69" style="stroke:#000000;stroke-width:5.76"/>
	<text x="1815.78" y="2504.54" style="font-family:'Helvetica';font-size:99.99px;fill:#000000" text-anchor="middle">20</text>
	<line x1="2475.74" y1="2374.71" x2="2475.74" y2="2414.69" style="stroke:#000000;stroke-width:5.76"/>
	<text x="2475.74" y="2504.54" style="font-family:'Helvetica';font-size:99.99px;fill:#000000" text-anchor="middle">30</text>
	<line x1="3135.70" y1="2374.71" x2="3135.70" y2="2414.69" style="stroke:#000000;stroke-width:5.76"/>
	<text x="3135.70" y="2504.54" style="font-family:'Helvetica';font-size:99.99px;fill:#000000" text-anchor="middle">40</text>
	<line x1="3795.66" y1="2374.71" x2="3795.66" y2="2414.69" style="stroke:#000000;stroke-width:5.76"/>
	<text x="3795.66" y="2504.54" style="font-family:'Helvetica';font-size:99.99px;fill:#000000" text-anchor="middle">50</text>
	<text x="2121.07" y="2614.56" style="font-family:'Helvetica';font-size:99.99px;fill:#000000" text-anchor="middle">Number of Cigarettes Smoked</text>
	<text x="400.21" y="2737.89" style="font-family:'Helvetica';font-size:79.94px;fill:#000000">Note: Non-smokers omitted from figure (N=1,176)</text>
	<text x="2121.07" y="215.98" style="font-family:'Helvetica';font-size:139.96px;fill:#1E2D53" text-anchor="middle">Histogram of Daily Cigarettes Smoked While Pregnant</text>
</svg>
