<?xml version="1.0" encoding="UTF-8" standalone="no"?>
<!-- This is a Stata 15.1 generated SVG file (http://www.stata.com) -->

<svg version="1.1" width="5.50in" height="4.00in" viewBox="0 0 3960 2880" xmlns="http://www.w3.org/2000/svg" xmlns:xlink="http://www.w3.org/1999/xlink">
	<desc>Stata Graph - Graph</desc>
	<rect x="0" y="0" width="3960" height="2880" style="fill:#EAF2F3;stroke:none"/>
	<rect x="0.00" y="0.00" width="3959.88" height="2880.00" style="fill:#EAF2F3"/>
	<rect x="2.88" y="2.88" width="3954.12" height="2874.24" style="fill:none;stroke:#EAF2F3;stroke-width:5.76"/>
	<rect x="390.80" y="275.35" width="3468.22" height="2213.83" style="fill:#FFFFFF"/>
	<rect x="393.68" y="278.23" width="3462.46" height="2208.07" style="fill:none;stroke:#FFFFFF;stroke-width:5.76"/>
	<line x1="390.80" y1="2489.19" x2="3859.02" y2="2489.19" style="stroke:#EAF2F3;stroke-width:8.64"/>
	<line x1="390.80" y1="1951.60" x2="3859.02" y2="1951.60" style="stroke:#EAF2F3;stroke-width:8.64"/>
	<line x1="390.80" y1="1414.01" x2="3859.02" y2="1414.01" style="stroke:#EAF2F3;stroke-width:8.64"/>
	<line x1="390.80" y1="876.30" x2="3859.02" y2="876.30" style="stroke:#EAF2F3;stroke-width:8.64"/>
	<line x1="390.80" y1="338.71" x2="3859.02" y2="338.71" style="stroke:#EAF2F3;stroke-width:8.64"/>
	<rect x="507.13" y="352.20" width="106.18" height="2136.98" style="fill:#CAC27E"/>
	<rect x="511.45" y="356.52" width="97.54" height="2128.34" style="fill:none;stroke:#D7D29E;stroke-width:8.64"/>
	<rect x="1143.70" y="1443.59" width="106.05" height="1045.60" style="fill:#CAC27E"/>
	<rect x="1148.02" y="1447.91" width="97.41" height="1036.96" style="fill:none;stroke:#D7D29E;stroke-width:8.64"/>
	<rect x="1780.14" y="2096.76" width="106.05" height="392.42" style="fill:#CAC27E"/>
	<rect x="1784.46" y="2101.08" width="97.41" height="383.78" style="fill:none;stroke:#D7D29E;stroke-width:8.64"/>
	<rect x="2416.71" y="2384.37" width="106.05" height="104.82" style="fill:#CAC27E"/>
	<rect x="2421.03" y="2388.69" width="97.41" height="96.18" style="fill:none;stroke:#D7D29E;stroke-width:8.64"/>
	<rect x="3053.16" y="2448.84" width="106.05" height="40.34" style="fill:#CAC27E"/>
	<rect x="3057.48" y="2453.16" width="97.41" height="31.70" style="fill:none;stroke:#D7D29E;stroke-width:8.64"/>
	<rect x="3689.61" y="2478.42" width="106.05" height="10.77" style="fill:#CAC27E"/>
	<rect x="3693.93" y="2482.74" width="97.41" height="2.13" style="fill:none;stroke:#D7D29E;stroke-width:8.64"/>
	<path d=" M507.13 2280.17 L518.14 2277.44 L529.15 2274.72 L540.17 2272.12 L551.06 2269.40 L562.07 2266.92 L573.09 2264.32 L584.10 2261.85 L595.11 2259.37 L606.13 2257.02 L617.14 2254.80 L628.15 2252.44 L639.04 2250.34 L650.06 2248.24 L661.07 2246.13 L672.09 2244.15 L683.10 2242.17 L694.11 2240.32 L705.13 2238.58 L716.14 2236.85 L727.03 2235.24 L738.04 2233.76 L749.06 2232.27 L760.07 2230.91 L771.09 2229.55 L782.10 2228.31 L793.11 2227.20 L804.13 2226.21 L815.02 2225.22 L826.03 2224.35 L837.04 2223.61 L848.06 2222.87 L859.07 2222.37 L870.09 2221.88 L881.10 2221.38 L892.11 2221.13 L903.00 2220.89 L914.02 2220.76 L925.03 2220.76 L936.04 2220.76 L947.06 2221.01 L958.07 2221.26 L969.09 2221.51 L980.10 2222.00 L990.99 2222.50 L1002.00 2223.11 L1013.02 2223.86 L1024.03 2224.60 L1035.05 2225.59 L1046.06 2226.58 L1057.07 2227.57 L1068.09 2228.81 L1079.10 2230.04 L1089.99 2231.28 L1101.00 2232.77 L1112.02 2234.25 L1123.03 2235.86 L1134.05 2237.47 L1145.06 2239.20 L1156.07 2240.94 L1167.09 2242.92 L1177.98 2244.77 L1188.99 2246.88 L1200.00 2248.86 L1211.02 2251.08 L1222.03 2253.31 L1233.05 2255.54 L1244.06 2257.89 L1255.07 2260.24 L1265.96 2262.72 L1276.98 2265.19 L1287.99 2267.79 L1299.00 2270.39 L1310.02 2272.99 L1321.03 2275.71 L1332.05 2278.43 L1343.06 2281.16 L1353.95 2284.00 L1364.96 2286.72 L1375.98 2289.69 L1386.99 2292.54 L1398.00 2295.39 L1409.02 2298.36 L1420.03 2301.33 L1431.05 2304.30 L1441.93 2307.27 L1452.95 2310.36 L1463.96 2313.33 L1474.98 2316.42 L1485.99 2319.39 L1497.00 2322.49 L1508.02 2325.46 L1519.03 2328.55 L1529.92 2331.65 L1540.93 2334.62 L1551.95 2337.71 L1562.96 2340.68 L1573.98 2343.77 L1584.99 2346.74 L1596.00 2349.71 L1607.02 2352.68 L1617.91 2355.65 L1628.92 2358.62 L1639.93 2361.47 L1650.95 2364.44 L1661.96 2367.29 L1672.98 2370.13 L1683.99 2372.98 L1695.00 2375.83 L1705.89 2378.55 L1716.91 2381.27 L1727.92 2383.99 L1738.93 2386.72 L1749.95 2389.32 L1760.96 2391.91 L1771.98 2394.51 L1782.99 2397.11 L1793.88 2399.59 L1804.89 2402.06 L1815.91 2404.41 L1826.92 2406.89 L1837.93 2409.24 L1848.95 2411.47 L1859.96 2413.82 L1870.98 2416.05 L1881.87 2418.15 L1892.88 2420.38 L1903.89 2422.48 L1914.91 2424.46 L1925.92 2426.57 L1936.93 2428.55 L1947.95 2430.40 L1958.96 2432.38 L1969.85 2434.24 L1980.87 2435.97 L1991.88 2437.83 L2002.89 2439.56 L2013.91 2441.17 L2024.92 2442.90 L2035.93 2444.51 L2046.95 2446.00 L2057.96 2447.60 L2068.85 2449.09 L2079.87 2450.45 L2090.88 2451.94 L2101.89 2453.30 L2112.91 2454.53 L2123.92 2455.90 L2134.93 2457.13 L2145.95 2458.37 L2156.84 2459.61 L2167.85 2460.72 L2178.87 2461.84 L2189.88 2462.95 L2200.89 2463.94 L2211.91 2464.93 L2222.92 2465.92 L2233.93 2466.91 L2244.82 2467.78 L2255.84 2468.64 L2266.85 2469.51 L2277.87 2470.37 L2288.88 2471.12 L2299.89 2471.98 L2310.91 2472.73 L2321.92 2473.47 L2332.81 2474.09 L2343.82 2474.83 L2354.84 2475.45 L2365.85 2476.07 L2376.87 2476.69 L2387.88 2477.18 L2398.89 2477.80 L2409.91 2478.29 L2420.80 2478.79 L2431.81 2479.28 L2442.82 2479.78 L2453.84 2480.15 L2464.85 2480.65 L2475.87 2481.02 L2486.88 2481.39 L2497.89 2481.88 L2508.78 2482.13 L2519.80 2482.50 L2530.81 2482.87 L2541.82 2483.25 L2552.84 2483.49 L2563.85 2483.74 L2574.87 2484.11 L2585.88 2484.36 L2596.77 2484.61 L2607.78 2484.85 L2618.80 2485.10 L2629.81 2485.35 L2640.82 2485.47 L2651.84 2485.72 L2662.85 2485.84 L2673.87 2486.09 L2684.76 2486.22 L2695.77 2486.46 L2706.78 2486.59 L2717.80 2486.71 L2728.81 2486.83 L2739.82 2486.96 L2750.84 2487.08 L2761.85 2487.21 L2772.74 2487.33 L2783.76 2487.45 L2794.77 2487.58 L2805.78 2487.70 L2816.80 2487.82 L2827.81 2487.82 L2838.82 2487.95 L2849.84 2488.07 L2860.73 2488.07 L2871.74 2488.20 L2882.76 2488.20 L2893.77 2488.32 L2904.78 2488.32 L2915.80 2488.44 L2926.81 2488.44 L2937.82 2488.57 L2948.84 2488.57 L2959.73 2488.57 L2970.74 2488.69 L2981.76 2488.69 L2992.77 2488.69 L3003.78 2488.81 L3014.80 2488.81 L3025.81 2488.81 L3036.82 2488.81 L3047.72 2488.94 L3058.73 2488.94 L3069.74 2488.94 L3080.76 2488.94 L3091.77 2488.94 L3102.78 2488.94 L3113.80 2489.06 L3124.81 2489.06 L3135.70 2489.06 L3146.72 2489.06 L3157.73 2489.06 L3168.74 2489.06 L3179.76 2489.06 L3190.77 2489.06 L3201.78 2489.06 L3212.80 2489.19 L3223.69 2489.19 L3234.70 2489.19 L3245.72 2489.19 L3256.73 2489.19 L3267.74 2489.19 L3278.76 2489.19 L3289.77 2489.19 L3300.78 2489.19 L3311.67 2489.19 L3322.69 2489.19 L3333.70 2489.19 L3344.72 2489.19 L3355.73 2489.19 L3366.74 2489.19 L3377.76 2489.19 L3388.77 2489.19 L3399.66 2489.19 L3410.67 2489.19 L3421.69 2489.19 L3432.70 2489.19 L3443.72 2489.19 L3454.73 2489.19 L3465.74 2489.19 L3476.76 2489.31 L3487.65 2489.31 L3498.66 2489.31 L3509.67 2489.31 L3520.69 2489.31 L3531.70 2489.31 L3542.72 2489.31 L3553.73 2489.31 L3564.74 2489.31 L3575.63 2489.31 L3586.65 2489.31 L3597.66 2489.31 L3608.67 2489.31 L3619.69 2489.31 L3630.70 2489.31 L3641.72 2489.31 L3652.73 2489.31 L3663.62 2489.31 L3674.63 2489.31 L3685.65 2489.31 L3696.66 2489.31 L3707.67 2489.31 L3718.69 2489.31 L3729.70 2489.31 L3740.72 2489.31 L3751.61 2489.31 L3762.62 2489.31 L3773.63 2489.31 L3784.65 2489.31 L3795.66 2489.31" stroke-linecap="round" stroke-linejoin="round" style="fill:none;stroke:#2D6D66;stroke-width:8.64"/>
	<line x1="390.80" y1="2489.19" x2="390.80" y2="275.35" style="stroke:#000000;stroke-width:5.76"/>
	<line x1="390.80" y1="2489.19" x2="350.83" y2="2489.19" style="stroke:#000000;stroke-width:5.76"/>
	<text x="300.72" y="2489.19" style="font-family:'Helvetica';font-size:99.99px;fill:#000000" transform="rotate(-90 300.72,2489.19)" text-anchor="middle">0</text>
	<line x1="390.80" y1="1951.60" x2="350.83" y2="1951.60" style="stroke:#000000;stroke-width:5.76"/>
	<text x="300.72" y="1951.60" style="font-family:'Helvetica';font-size:99.99px;fill:#000000" transform="rotate(-90 300.72,1951.60)" text-anchor="middle">200</text>
	<line x1="390.80" y1="1414.01" x2="350.83" y2="1414.01" style="stroke:#000000;stroke-width:5.76"/>
	<text x="300.72" y="1414.01" style="font-family:'Helvetica';font-size:99.99px;fill:#000000" transform="rotate(-90 300.72,1414.01)" text-anchor="middle">400</text>
	<line x1="390.80" y1="876.30" x2="350.83" y2="876.30" style="stroke:#000000;stroke-width:5.76"/>
	<text x="300.72" y="876.30" style="font-family:'Helvetica';font-size:99.99px;fill:#000000" transform="rotate(-90 300.72,876.30)" text-anchor="middle">600</text>
	<line x1="390.80" y1="338.71" x2="350.83" y2="338.71" style="stroke:#000000;stroke-width:5.76"/>
	<text x="300.72" y="338.71" style="font-family:'Helvetica';font-size:99.99px;fill:#000000" transform="rotate(-90 300.72,338.71)" text-anchor="middle">800</text>
	<text x="190.71" y="1382.33" style="font-family:'Helvetica';font-size:99.99px;fill:#000000" transform="rotate(-90 190.71,1382.33)" text-anchor="middle">Frequency</text>
	<line x1="390.80" y1="2489.19" x2="3859.02" y2="2489.19" style="stroke:#000000;stroke-width:5.76"/>
	<line x1="507.13" y1="2489.19" x2="507.13" y2="2529.16" style="stroke:#000000;stroke-width:5.76"/>
	<text x="507.13" y="2619.14" style="font-family:'Helvetica';font-size:99.99px;fill:#000000" text-anchor="middle">1</text>
	<line x1="1164.86" y1="2489.19" x2="1164.86" y2="2529.16" style="stroke:#000000;stroke-width:5.76"/>
	<text x="1164.86" y="2619.14" style="font-family:'Helvetica';font-size:99.99px;fill:#000000" text-anchor="middle">2</text>
	<line x1="1822.59" y1="2489.19" x2="1822.59" y2="2529.16" style="stroke:#000000;stroke-width:5.76"/>
	<text x="1822.59" y="2619.14" style="font-family:'Helvetica';font-size:99.99px;fill:#000000" text-anchor="middle">3</text>
	<line x1="2480.32" y1="2489.19" x2="2480.32" y2="2529.16" style="stroke:#000000;stroke-width:5.76"/>
	<text x="2480.32" y="2619.14" style="font-family:'Helvetica';font-size:99.99px;fill:#000000" text-anchor="middle">4</text>
	<line x1="3138.05" y1="2489.19" x2="3138.05" y2="2529.16" style="stroke:#000000;stroke-width:5.76"/>
	<text x="3138.05" y="2619.14" style="font-family:'Helvetica';font-size:99.99px;fill:#000000" text-anchor="middle">5</text>
	<line x1="3795.66" y1="2489.19" x2="3795.66" y2="2529.16" style="stroke:#000000;stroke-width:5.76"/>
	<text x="3795.66" y="2619.14" style="font-family:'Helvetica';font-size:99.99px;fill:#000000" text-anchor="middle">6</text>
	<text x="2124.91" y="2729.16" style="font-family:'Helvetica';font-size:99.99px;fill:#000000" text-anchor="middle">Birth Order of Child</text>
	<text x="2124.91" y="215.98" style="font-family:'Helvetica';font-size:139.96px;fill:#1E2D53" text-anchor="middle">Histogram of Child Birth Order</text>
</svg>
