<?xml version="1.0" encoding="UTF-8" standalone="no"?>
<!-- This is a Stata 15.1 generated SVG file (http://www.stata.com) -->

<svg version="1.1" width="5.50in" height="4.00in" viewBox="0 0 3960 2880" xmlns="http://www.w3.org/2000/svg" xmlns:xlink="http://www.w3.org/1999/xlink">
	<desc>Stata Graph - Graph</desc>
	<rect x="0" y="0" width="3960" height="2880" style="fill:#EAF2F3;stroke:none"/>
	<rect x="0.00" y="0.00" width="3959.88" height="2880.00" style="fill:#EAF2F3"/>
	<rect x="2.88" y="2.88" width="3954.12" height="2874.24" style="fill:none;stroke:#EAF2F3;stroke-width:5.76"/>
	<rect x="390.80" y="100.86" width="3468.22" height="2388.33" style="fill:#FFFFFF"/>
	<rect x="393.68" y="103.74" width="3462.46" height="2382.57" style="fill:none;stroke:#FFFFFF;stroke-width:5.76"/>
	<line x1="390.80" y1="2489.19" x2="3859.02" y2="2489.19" style="stroke:#EAF2F3;stroke-width:8.64"/>
	<line x1="390.80" y1="1714.24" x2="3859.02" y2="1714.24" style="stroke:#EAF2F3;stroke-width:8.64"/>
	<line x1="390.80" y1="939.17" x2="3859.02" y2="939.17" style="stroke:#EAF2F3;stroke-width:8.64"/>
	<line x1="390.80" y1="164.22" x2="3859.02" y2="164.22" style="stroke:#EAF2F3;stroke-width:8.64"/>
	<rect x="489.06" y="389.58" width="69.92" height="2099.61" style="fill:#CAC27E"/>
	<rect x="493.38" y="393.90" width="61.28" height="2090.97" style="fill:none;stroke:#D7D29E;stroke-width:8.64"/>
	<rect x="558.98" y="296.76" width="69.92" height="2192.42" style="fill:#CAC27E"/>
	<rect x="563.30" y="301.08" width="61.28" height="2183.78" style="fill:none;stroke:#D7D29E;stroke-width:8.64"/>
	<rect x="628.90" y="611.96" width="69.92" height="1877.22" style="fill:#CAC27E"/>
	<rect x="633.22" y="616.28" width="61.28" height="1868.58" style="fill:none;stroke:#D7D29E;stroke-width:8.64"/>
	<rect x="698.82" y="629.16" width="69.92" height="1860.02" style="fill:#CAC27E"/>
	<rect x="703.14" y="633.48" width="61.28" height="1851.38" style="fill:none;stroke:#D7D29E;stroke-width:8.64"/>
	<rect x="768.74" y="548.48" width="69.79" height="1940.71" style="fill:#CAC27E"/>
	<rect x="773.05" y="552.80" width="61.16" height="1932.07" style="fill:none;stroke:#D7D29E;stroke-width:8.64"/>
	<rect x="838.53" y="734.23" width="69.92" height="1754.95" style="fill:#CAC27E"/>
	<rect x="842.85" y="738.55" width="61.28" height="1746.31" style="fill:none;stroke:#D7D29E;stroke-width:8.64"/>
	<rect x="908.45" y="866.28" width="69.92" height="1622.91" style="fill:#CAC27E"/>
	<rect x="912.77" y="870.60" width="61.28" height="1614.27" style="fill:none;stroke:#D7D29E;stroke-width:8.64"/>
	<rect x="978.37" y="1095.96" width="69.92" height="1393.22" style="fill:#CAC27E"/>
	<rect x="982.69" y="1100.28" width="61.28" height="1384.58" style="fill:none;stroke:#D7D29E;stroke-width:8.64"/>
	<rect x="1048.29" y="1196.20" width="69.92" height="1292.98" style="fill:#CAC27E"/>
	<rect x="1052.61" y="1200.52" width="61.28" height="1284.34" style="fill:none;stroke:#D7D29E;stroke-width:8.64"/>
	<rect x="1118.20" y="1223.06" width="69.92" height="1266.13" style="fill:#CAC27E"/>
	<rect x="1122.52" y="1227.38" width="61.28" height="1257.49" style="fill:none;stroke:#D7D29E;stroke-width:8.64"/>
	<rect x="1188.12" y="1342.85" width="69.80" height="1146.33" style="fill:#CAC27E"/>
	<rect x="1192.44" y="1347.17" width="61.16" height="1137.69" style="fill:none;stroke:#D7D29E;stroke-width:8.64"/>
	<rect x="1257.92" y="1592.22" width="69.92" height="896.97" style="fill:#CAC27E"/>
	<rect x="1262.24" y="1596.54" width="61.28" height="888.33" style="fill:none;stroke:#D7D29E;stroke-width:8.64"/>
	<rect x="1327.84" y="1575.02" width="69.92" height="914.17" style="fill:#CAC27E"/>
	<rect x="1332.16" y="1579.34" width="61.28" height="905.53" style="fill:none;stroke:#D7D29E;stroke-width:8.64"/>
	<rect x="1397.76" y="1797.52" width="69.92" height="691.66" style="fill:#CAC27E"/>
	<rect x="1402.08" y="1801.84" width="61.28" height="683.02" style="fill:none;stroke:#D7D29E;stroke-width:8.64"/>
	<rect x="1467.67" y="1838.98" width="69.92" height="650.20" style="fill:#CAC27E"/>
	<rect x="1471.99" y="1843.30" width="61.28" height="641.56" style="fill:none;stroke:#D7D29E;stroke-width:8.64"/>
	<rect x="1537.59" y="1880.56" width="69.92" height="608.62" style="fill:#CAC27E"/>
	<rect x="1541.91" y="1884.88" width="61.28" height="599.98" style="fill:none;stroke:#D7D29E;stroke-width:8.64"/>
	<rect x="1607.51" y="2036.99" width="69.79" height="452.20" style="fill:#CAC27E"/>
	<rect x="1611.83" y="2041.31" width="61.16" height="443.56" style="fill:none;stroke:#D7D29E;stroke-width:8.64"/>
	<rect x="1677.31" y="2117.68" width="69.92" height="371.51" style="fill:#CAC27E"/>
	<rect x="1681.63" y="2122.00" width="61.28" height="362.87" style="fill:none;stroke:#D7D29E;stroke-width:8.64"/>
	<rect x="1747.23" y="2191.06" width="69.92" height="298.12" style="fill:#CAC27E"/>
	<rect x="1751.55" y="2195.38" width="61.28" height="289.48" style="fill:none;stroke:#D7D29E;stroke-width:8.64"/>
	<rect x="1817.14" y="2247.25" width="69.92" height="241.94" style="fill:#CAC27E"/>
	<rect x="1821.46" y="2251.57" width="61.28" height="233.30" style="fill:none;stroke:#D7D29E;stroke-width:8.64"/>
	<rect x="1887.06" y="2296.13" width="69.92" height="193.06" style="fill:#CAC27E"/>
	<rect x="1891.38" y="2300.45" width="61.28" height="184.42" style="fill:none;stroke:#D7D29E;stroke-width:8.64"/>
	<rect x="1956.98" y="2318.16" width="69.79" height="171.03" style="fill:#CAC27E"/>
	<rect x="1961.30" y="2322.48" width="61.16" height="162.39" style="fill:none;stroke:#D7D29E;stroke-width:8.64"/>
	<rect x="2026.78" y="2379.17" width="69.92" height="110.02" style="fill:#CAC27E"/>
	<rect x="2031.10" y="2383.49" width="61.28" height="101.38" style="fill:none;stroke:#D7D29E;stroke-width:8.64"/>
	<rect x="2096.70" y="2381.64" width="69.92" height="107.54" style="fill:#CAC27E"/>
	<rect x="2101.02" y="2385.96" width="61.28" height="98.90" style="fill:none;stroke:#D7D29E;stroke-width:8.64"/>
	<rect x="2166.61" y="2423.22" width="69.92" height="65.96" style="fill:#CAC27E"/>
	<rect x="2170.93" y="2427.54" width="61.28" height="57.32" style="fill:none;stroke:#D7D29E;stroke-width:8.64"/>
	<rect x="2236.53" y="2425.70" width="69.92" height="63.49" style="fill:#CAC27E"/>
	<rect x="2240.85" y="2430.02" width="61.28" height="54.85" style="fill:none;stroke:#D7D29E;stroke-width:8.64"/>
	<rect x="2306.45" y="2437.83" width="69.92" height="51.36" style="fill:#CAC27E"/>
	<rect x="2310.77" y="2442.15" width="61.28" height="42.72" style="fill:none;stroke:#D7D29E;stroke-width:8.64"/>
	<rect x="2376.37" y="2459.86" width="69.80" height="29.33" style="fill:#CAC27E"/>
	<rect x="2380.69" y="2464.18" width="61.16" height="20.69" style="fill:none;stroke:#D7D29E;stroke-width:8.64"/>
	<rect x="2446.17" y="2455.03" width="69.92" height="34.16" style="fill:#CAC27E"/>
	<rect x="2450.49" y="2459.35" width="61.28" height="25.52" style="fill:none;stroke:#D7D29E;stroke-width:8.64"/>
	<rect x="2516.09" y="2472.11" width="69.92" height="17.08" style="fill:#CAC27E"/>
	<rect x="2520.40" y="2476.43" width="61.28" height="8.44" style="fill:none;stroke:#D7D29E;stroke-width:8.64"/>
	<rect x="2586.00" y="2481.88" width="69.92" height="7.30" style="fill:#CAC27E"/>
	<rect x="2590.32" y="2484.87" width="61.28" height="1.34" style="fill:none;stroke:#D7D29E;stroke-width:8.64"/>
	<rect x="2655.92" y="2484.36" width="69.92" height="4.83" style="fill:#CAC27E"/>
	<rect x="2660.24" y="2484.87" width="61.28" height="3.81" style="fill:none;stroke:#D7D29E;stroke-width:8.64"/>
	<rect x="2725.84" y="2486.71" width="69.92" height="2.48" style="fill:#CAC27E"/>
	<rect x="2730.16" y="2484.87" width="61.28" height="6.16" style="fill:none;stroke:#D7D29E;stroke-width:8.64"/>
	<rect x="2795.76" y="2486.71" width="69.79" height="2.48" style="fill:#CAC27E"/>
	<rect x="2800.08" y="2484.87" width="61.16" height="6.16" style="fill:none;stroke:#D7D29E;stroke-width:8.64"/>
	<rect x="3005.39" y="2484.36" width="69.92" height="4.83" style="fill:#CAC27E"/>
	<rect x="3009.71" y="2484.87" width="61.28" height="3.81" style="fill:none;stroke:#D7D29E;stroke-width:8.64"/>
	<rect x="3145.23" y="2486.71" width="69.92" height="2.48" style="fill:#CAC27E"/>
	<rect x="3149.55" y="2484.87" width="61.28" height="6.16" style="fill:none;stroke:#D7D29E;stroke-width:8.64"/>
	<rect x="3215.15" y="2486.71" width="69.80" height="2.48" style="fill:#CAC27E"/>
	<rect x="3219.47" y="2484.87" width="61.16" height="6.16" style="fill:none;stroke:#D7D29E;stroke-width:8.64"/>
	<line x1="390.80" y1="2489.19" x2="390.80" y2="100.86" style="stroke:#000000;stroke-width:5.76"/>
	<line x1="390.80" y1="2489.19" x2="350.83" y2="2489.19" style="stroke:#000000;stroke-width:5.76"/>
	<text x="300.72" y="2489.19" style="font-family:'Helvetica';font-size:99.99px;fill:#000000" transform="rotate(-90 300.72,2489.19)" text-anchor="middle">0</text>
	<line x1="390.80" y1="1714.24" x2="350.83" y2="1714.24" style="stroke:#000000;stroke-width:5.76"/>
	<text x="300.72" y="1714.24" style="font-family:'Helvetica';font-size:99.99px;fill:#000000" transform="rotate(-90 300.72,1714.24)" text-anchor="middle">.1</text>
	<line x1="390.80" y1="939.17" x2="350.83" y2="939.17" style="stroke:#000000;stroke-width:5.76"/>
	<text x="300.72" y="939.17" style="font-family:'Helvetica';font-size:99.99px;fill:#000000" transform="rotate(-90 300.72,939.17)" text-anchor="middle">.2</text>
	<line x1="390.80" y1="164.22" x2="350.83" y2="164.22" style="stroke:#000000;stroke-width:5.76"/>
	<text x="300.72" y="164.22" style="font-family:'Helvetica';font-size:99.99px;fill:#000000" transform="rotate(-90 300.72,164.22)" text-anchor="middle">.3</text>
	<text x="190.71" y="1294.96" style="font-family:'Helvetica';font-size:99.99px;fill:#000000" transform="rotate(-90 190.71,1294.96)" text-anchor="middle">Density</text>
	<line x1="390.80" y1="2489.19" x2="3859.02" y2="2489.19" style="stroke:#000000;stroke-width:5.76"/>
	<line x1="489.06" y1="2489.19" x2="489.06" y2="2529.16" style="stroke:#000000;stroke-width:5.76"/>
	<text x="489.06" y="2619.14" style="font-family:'Helvetica';font-size:99.99px;fill:#000000" text-anchor="middle">0</text>
	<line x1="1591.30" y1="2489.19" x2="1591.30" y2="2529.16" style="stroke:#000000;stroke-width:5.76"/>
	<text x="1591.30" y="2619.14" style="font-family:'Helvetica';font-size:99.99px;fill:#000000" text-anchor="middle">5</text>
	<line x1="2693.54" y1="2489.19" x2="2693.54" y2="2529.16" style="stroke:#000000;stroke-width:5.76"/>
	<text x="2693.54" y="2619.14" style="font-family:'Helvetica';font-size:99.99px;fill:#000000" text-anchor="middle">10</text>
	<line x1="3795.66" y1="2489.19" x2="3795.66" y2="2529.16" style="stroke:#000000;stroke-width:5.76"/>
	<text x="3795.66" y="2619.14" style="font-family:'Helvetica';font-size:99.99px;fill:#000000" text-anchor="middle">15</text>
	<text x="2124.91" y="2729.16" style="fill:#000000" text-anchor="middle">
		<tspan style="font-family:'Helvetica';font-size:99.99px">Normal Distribution, μ = 0; σ</tspan>
		<tspan dy="-52.38px" style="font-family:'Helvetica';font-size:58.29px">2</tspan>
		<tspan dy="52.38px" style="font-family:'Helvetica';font-size:99.99px"> = 9</tspan>
	</text>
</svg>
