<?xml version="1.0" encoding="UTF-8" standalone="no"?>
<!-- This is a Stata 15.1 generated SVG file (http://www.stata.com) -->

<svg version="1.1" width="5.50in" height="4.00in" viewBox="0 0 3960 2880" xmlns="http://www.w3.org/2000/svg" xmlns:xlink="http://www.w3.org/1999/xlink">
	<desc>Stata Graph - Graph</desc>
	<rect x="0" y="0" width="3960" height="2880" style="fill:#EAF2F3;stroke:none"/>
	<rect x="0.00" y="0.00" width="3959.88" height="2880.00" style="fill:#EAF2F3"/>
	<rect x="2.88" y="2.88" width="3954.12" height="2874.24" style="fill:none;stroke:#EAF2F3;stroke-width:5.76"/>
	<rect x="390.80" y="100.86" width="3468.22" height="2388.33" style="fill:#FFFFFF"/>
	<rect x="393.68" y="103.74" width="3462.46" height="2382.57" style="fill:none;stroke:#FFFFFF;stroke-width:5.76"/>
	<line x1="390.80" y1="2489.19" x2="3859.02" y2="2489.19" style="stroke:#EAF2F3;stroke-width:8.64"/>
	<line x1="390.80" y1="1714.24" x2="3859.02" y2="1714.24" style="stroke:#EAF2F3;stroke-width:8.64"/>
	<line x1="390.80" y1="939.17" x2="3859.02" y2="939.17" style="stroke:#EAF2F3;stroke-width:8.64"/>
	<line x1="390.80" y1="164.22" x2="3859.02" y2="164.22" style="stroke:#EAF2F3;stroke-width:8.64"/>
	<rect x="495.37" y="628.30" width="82.54" height="1860.89" style="fill:#CAC27E"/>
	<rect x="499.69" y="632.62" width="73.90" height="1852.25" style="fill:none;stroke:#D7D29E;stroke-width:8.64"/>
	<rect x="577.91" y="481.03" width="82.42" height="2008.15" style="fill:#CAC27E"/>
	<rect x="582.23" y="485.35" width="73.78" height="1999.51" style="fill:none;stroke:#D7D29E;stroke-width:8.64"/>
	<rect x="660.33" y="581.77" width="82.54" height="1907.42" style="fill:#CAC27E"/>
	<rect x="664.65" y="586.09" width="73.90" height="1898.78" style="fill:none;stroke:#D7D29E;stroke-width:8.64"/>
	<rect x="742.87" y="636.09" width="82.42" height="1853.09" style="fill:#CAC27E"/>
	<rect x="747.19" y="640.41" width="73.78" height="1844.45" style="fill:none;stroke:#D7D29E;stroke-width:8.64"/>
	<rect x="825.29" y="636.09" width="82.54" height="1853.09" style="fill:#CAC27E"/>
	<rect x="829.61" y="640.41" width="73.90" height="1844.45" style="fill:none;stroke:#D7D29E;stroke-width:8.64"/>
	<rect x="907.83" y="511.97" width="82.42" height="1977.22" style="fill:#CAC27E"/>
	<rect x="912.15" y="516.29" width="73.78" height="1968.58" style="fill:none;stroke:#D7D29E;stroke-width:8.64"/>
	<rect x="990.25" y="636.09" width="82.54" height="1853.09" style="fill:#CAC27E"/>
	<rect x="994.57" y="640.41" width="73.90" height="1844.45" style="fill:none;stroke:#D7D29E;stroke-width:8.64"/>
	<rect x="1072.79" y="442.30" width="82.42" height="2046.89" style="fill:#CAC27E"/>
	<rect x="1077.11" y="446.62" width="73.78" height="2038.25" style="fill:none;stroke:#D7D29E;stroke-width:8.64"/>
	<rect x="1155.21" y="403.44" width="82.54" height="2085.75" style="fill:#CAC27E"/>
	<rect x="1159.53" y="407.76" width="73.90" height="2077.11" style="fill:none;stroke:#D7D29E;stroke-width:8.64"/>
	<rect x="1237.75" y="736.83" width="82.42" height="1752.35" style="fill:#CAC27E"/>
	<rect x="1242.07" y="741.15" width="73.78" height="1743.72" style="fill:none;stroke:#D7D29E;stroke-width:8.64"/>
	<rect x="1320.16" y="597.36" width="82.54" height="1891.83" style="fill:#CAC27E"/>
	<rect x="1324.48" y="601.68" width="73.90" height="1883.19" style="fill:none;stroke:#D7D29E;stroke-width:8.64"/>
	<rect x="1402.71" y="457.77" width="82.42" height="2031.42" style="fill:#CAC27E"/>
	<rect x="1407.03" y="462.09" width="73.78" height="2022.78" style="fill:none;stroke:#D7D29E;stroke-width:8.64"/>
	<rect x="1485.12" y="814.42" width="82.54" height="1674.76" style="fill:#CAC27E"/>
	<rect x="1489.44" y="818.74" width="73.90" height="1666.12" style="fill:none;stroke:#D7D29E;stroke-width:8.64"/>
	<rect x="1567.66" y="519.77" width="82.42" height="1969.42" style="fill:#CAC27E"/>
	<rect x="1571.98" y="524.09" width="73.78" height="1960.78" style="fill:none;stroke:#D7D29E;stroke-width:8.64"/>
	<rect x="1650.08" y="713.56" width="82.54" height="1775.62" style="fill:#CAC27E"/>
	<rect x="1654.40" y="717.88" width="73.90" height="1766.98" style="fill:none;stroke:#D7D29E;stroke-width:8.64"/>
	<rect x="1732.62" y="775.69" width="82.42" height="1713.50" style="fill:#CAC27E"/>
	<rect x="1736.94" y="780.01" width="73.78" height="1704.86" style="fill:none;stroke:#D7D29E;stroke-width:8.64"/>
	<rect x="1815.04" y="349.23" width="82.54" height="2139.95" style="fill:#CAC27E"/>
	<rect x="1819.36" y="353.55" width="73.90" height="2131.31" style="fill:none;stroke:#D7D29E;stroke-width:8.64"/>
	<rect x="1897.58" y="395.76" width="82.42" height="2093.42" style="fill:#CAC27E"/>
	<rect x="1901.90" y="400.08" width="73.78" height="2084.78" style="fill:none;stroke:#D7D29E;stroke-width:8.64"/>
	<rect x="1980.00" y="465.56" width="82.54" height="2023.62" style="fill:#CAC27E"/>
	<rect x="1984.32" y="469.88" width="73.90" height="2014.98" style="fill:none;stroke:#D7D29E;stroke-width:8.64"/>
	<rect x="2062.54" y="411.23" width="82.42" height="2077.95" style="fill:#CAC27E"/>
	<rect x="2066.86" y="415.55" width="73.78" height="2069.31" style="fill:none;stroke:#D7D29E;stroke-width:8.64"/>
	<rect x="2144.96" y="659.36" width="82.54" height="1829.82" style="fill:#CAC27E"/>
	<rect x="2149.28" y="663.68" width="73.90" height="1821.18" style="fill:none;stroke:#D7D29E;stroke-width:8.64"/>
	<rect x="2227.50" y="372.50" width="82.42" height="2116.69" style="fill:#CAC27E"/>
	<rect x="2231.82" y="376.82" width="73.78" height="2108.05" style="fill:none;stroke:#D7D29E;stroke-width:8.64"/>
	<rect x="2309.92" y="636.09" width="82.54" height="1853.09" style="fill:#CAC27E"/>
	<rect x="2314.24" y="640.41" width="73.90" height="1844.45" style="fill:none;stroke:#D7D29E;stroke-width:8.64"/>
	<rect x="2392.46" y="667.16" width="82.42" height="1822.03" style="fill:#CAC27E"/>
	<rect x="2396.78" y="671.48" width="73.78" height="1813.39" style="fill:none;stroke:#D7D29E;stroke-width:8.64"/>
	<rect x="2474.88" y="729.16" width="82.54" height="1760.03" style="fill:#CAC27E"/>
	<rect x="2479.20" y="733.48" width="73.90" height="1751.39" style="fill:none;stroke:#D7D29E;stroke-width:8.64"/>
	<rect x="2557.42" y="403.44" width="82.42" height="2085.75" style="fill:#CAC27E"/>
	<rect x="2561.74" y="407.76" width="73.78" height="2077.11" style="fill:none;stroke:#D7D29E;stroke-width:8.64"/>
	<rect x="2639.84" y="504.30" width="82.54" height="1984.89" style="fill:#CAC27E"/>
	<rect x="2644.15" y="508.62" width="73.90" height="1976.25" style="fill:none;stroke:#D7D29E;stroke-width:8.64"/>
	<rect x="2722.38" y="434.50" width="82.42" height="2054.69" style="fill:#CAC27E"/>
	<rect x="2726.70" y="438.82" width="73.78" height="2046.05" style="fill:none;stroke:#D7D29E;stroke-width:8.64"/>
	<rect x="2804.79" y="403.44" width="82.54" height="2085.75" style="fill:#CAC27E"/>
	<rect x="2809.11" y="407.76" width="73.90" height="2077.11" style="fill:none;stroke:#D7D29E;stroke-width:8.64"/>
	<rect x="2887.34" y="511.97" width="82.42" height="1977.22" style="fill:#CAC27E"/>
	<rect x="2891.65" y="516.29" width="73.78" height="1968.58" style="fill:none;stroke:#D7D29E;stroke-width:8.64"/>
	<rect x="2969.75" y="519.77" width="82.54" height="1969.42" style="fill:#CAC27E"/>
	<rect x="2974.07" y="524.09" width="73.90" height="1960.78" style="fill:none;stroke:#D7D29E;stroke-width:8.64"/>
	<rect x="3052.29" y="496.50" width="82.42" height="1992.68" style="fill:#CAC27E"/>
	<rect x="3056.61" y="500.82" width="73.78" height="1984.05" style="fill:none;stroke:#D7D29E;stroke-width:8.64"/>
	<rect x="3134.71" y="636.09" width="82.54" height="1853.09" style="fill:#CAC27E"/>
	<rect x="3139.03" y="640.41" width="73.90" height="1844.45" style="fill:none;stroke:#D7D29E;stroke-width:8.64"/>
	<rect x="3217.25" y="574.09" width="82.42" height="1915.09" style="fill:#CAC27E"/>
	<rect x="3221.57" y="578.41" width="73.78" height="1906.45" style="fill:none;stroke:#D7D29E;stroke-width:8.64"/>
	<rect x="3299.67" y="504.30" width="82.54" height="1984.89" style="fill:#CAC27E"/>
	<rect x="3303.99" y="508.62" width="73.90" height="1976.25" style="fill:none;stroke:#D7D29E;stroke-width:8.64"/>
	<rect x="3382.21" y="574.09" width="82.42" height="1915.09" style="fill:#CAC27E"/>
	<rect x="3386.53" y="578.41" width="73.78" height="1906.45" style="fill:none;stroke:#D7D29E;stroke-width:8.64"/>
	<rect x="3464.63" y="651.56" width="82.54" height="1837.62" style="fill:#CAC27E"/>
	<rect x="3468.95" y="655.88" width="73.90" height="1828.98" style="fill:none;stroke:#D7D29E;stroke-width:8.64"/>
	<rect x="3547.17" y="426.70" width="82.42" height="2062.48" style="fill:#CAC27E"/>
	<rect x="3551.49" y="431.02" width="73.78" height="2053.84" style="fill:none;stroke:#D7D29E;stroke-width:8.64"/>
	<rect x="3629.59" y="643.89" width="82.54" height="1845.29" style="fill:#CAC27E"/>
	<rect x="3633.91" y="648.21" width="73.90" height="1836.65" style="fill:none;stroke:#D7D29E;stroke-width:8.64"/>
	<rect x="3712.13" y="488.70" width="82.42" height="2000.48" style="fill:#CAC27E"/>
	<rect x="3716.45" y="493.02" width="73.78" height="1991.84" style="fill:none;stroke:#D7D29E;stroke-width:8.64"/>
	<line x1="390.80" y1="2489.19" x2="390.80" y2="100.86" style="stroke:#000000;stroke-width:5.76"/>
	<line x1="390.80" y1="2489.19" x2="350.83" y2="2489.19" style="stroke:#000000;stroke-width:5.76"/>
	<text x="300.72" y="2489.19" style="font-family:'Helvetica';font-size:99.99px;fill:#000000" transform="rotate(-90 300.72,2489.19)" text-anchor="middle">0</text>
	<line x1="390.80" y1="1714.24" x2="350.83" y2="1714.24" style="stroke:#000000;stroke-width:5.76"/>
	<text x="300.72" y="1714.24" style="font-family:'Helvetica';font-size:99.99px;fill:#000000" transform="rotate(-90 300.72,1714.24)" text-anchor="middle">.2</text>
	<line x1="390.80" y1="939.17" x2="350.83" y2="939.17" style="stroke:#000000;stroke-width:5.76"/>
	<text x="300.72" y="939.17" style="font-family:'Helvetica';font-size:99.99px;fill:#000000" transform="rotate(-90 300.72,939.17)" text-anchor="middle">.4</text>
	<line x1="390.80" y1="164.22" x2="350.83" y2="164.22" style="stroke:#000000;stroke-width:5.76"/>
	<text x="300.72" y="164.22" style="font-family:'Helvetica';font-size:99.99px;fill:#000000" transform="rotate(-90 300.72,164.22)" text-anchor="middle">.6</text>
	<text x="190.71" y="1294.96" style="font-family:'Helvetica';font-size:99.99px;fill:#000000" transform="rotate(-90 190.71,1294.96)" text-anchor="middle">Density</text>
	<line x1="390.80" y1="2489.19" x2="3859.02" y2="2489.19" style="stroke:#000000;stroke-width:5.76"/>
	<line x1="495.00" y1="2489.19" x2="495.00" y2="2529.16" style="stroke:#000000;stroke-width:5.76"/>
	<text x="495.00" y="2619.14" style="font-family:'Helvetica';font-size:99.99px;fill:#000000" text-anchor="middle">4</text>
	<line x1="1320.16" y1="2489.19" x2="1320.16" y2="2529.16" style="stroke:#000000;stroke-width:5.76"/>
	<text x="1320.16" y="2619.14" style="font-family:'Helvetica';font-size:99.99px;fill:#000000" text-anchor="middle">4.5</text>
	<line x1="2145.33" y1="2489.19" x2="2145.33" y2="2529.16" style="stroke:#000000;stroke-width:5.76"/>
	<text x="2145.33" y="2619.14" style="font-family:'Helvetica';font-size:99.99px;fill:#000000" text-anchor="middle">5</text>
	<line x1="2970.49" y1="2489.19" x2="2970.49" y2="2529.16" style="stroke:#000000;stroke-width:5.76"/>
	<text x="2970.49" y="2619.14" style="font-family:'Helvetica';font-size:99.99px;fill:#000000" text-anchor="middle">5.5</text>
	<line x1="3795.66" y1="2489.19" x2="3795.66" y2="2529.16" style="stroke:#000000;stroke-width:5.76"/>
	<text x="3795.66" y="2619.14" style="font-family:'Helvetica';font-size:99.99px;fill:#000000" text-anchor="middle">6</text>
	<text x="2124.91" y="2729.16" style="font-family:'Helvetica';font-size:99.99px;fill:#000000" text-anchor="middle">Uniform Distribution on [4,6]</text>
</svg>
